<svg id="my-svg" width="100%" xmlns="http://www.w3.org/2000/svg" xmlns:xlink="http://www.w3.org/1999/xlink" style="max-width: 2500px; background-color: white;" viewBox="0 -25 2500 540" preserveAspectRatio="xMinYMin meet" height="565" role="graphics-document document" aria-roledescription="journey"><style>#my-svg{font-family:"trebuchet ms",verdana,arial,sans-serif;font-size:16px;fill:#000000;}@keyframes edge-animation-frame{from{stroke-dashoffset:0;}}@keyframes dash{to{stroke-dashoffset:0;}}#my-svg .edge-animation-slow{stroke-dasharray:9,5!important;stroke-dashoffset:900;animation:dash 50s linear infinite;stroke-linecap:round;}#my-svg .edge-animation-fast{stroke-dasharray:9,5!important;stroke-dashoffset:900;animation:dash 20s linear infinite;stroke-linecap:round;}#my-svg .error-icon{fill:#552222;}#my-svg .error-text{fill:#552222;stroke:#552222;}#my-svg .edge-thickness-normal{stroke-width:1px;}#my-svg .edge-thickness-thick{stroke-width:3.5px;}#my-svg .edge-pattern-solid{stroke-dasharray:0;}#my-svg .edge-thickness-invisible{stroke-width:0;fill:none;}#my-svg .edge-pattern-dashed{stroke-dasharray:3;}#my-svg .edge-pattern-dotted{stroke-dasharray:2;}#my-svg .marker{fill:#666;stroke:#666;}#my-svg .marker.cross{stroke:#666;}#my-svg svg{font-family:"trebuchet ms",verdana,arial,sans-serif;font-size:16px;}#my-svg p{margin:0;}#my-svg .label{font-family:"trebuchet ms",verdana,arial,sans-serif;color:#000000;}#my-svg .mouth{stroke:#666;}#my-svg line{stroke:#000000;}#my-svg .legend{fill:#000000;font-family:"trebuchet ms",verdana,arial,sans-serif;}#my-svg .label text{fill:#333;}#my-svg .label{color:#000000;}#my-svg .face{fill:#FFF8DC;stroke:#999;}#my-svg .node rect,#my-svg .node circle,#my-svg .node ellipse,#my-svg .node polygon,#my-svg .node path{fill:#eee;stroke:#999;stroke-width:1px;}#my-svg .node .label{text-align:center;}#my-svg .node.clickable{cursor:pointer;}#my-svg .arrowheadPath{fill:#333333;}#my-svg .edgePath .path{stroke:#666;stroke-width:1.5px;}#my-svg .flowchart-link{stroke:#666;fill:none;}#my-svg .edgeLabel{background-color:white;text-align:center;}#my-svg .edgeLabel rect{opacity:0.5;}#my-svg .cluster text{fill:#333;}#my-svg div.mermaidTooltip{position:absolute;text-align:center;max-width:200px;padding:2px;font-family:"trebuchet ms",verdana,arial,sans-serif;font-size:12px;background:hsl(-160, 0%, 93.3333333333%);border:1px solid #707070;border-radius:2px;pointer-events:none;z-index:100;}#my-svg .task-type-0,#my-svg .section-type-0{fill:#eee;}#my-svg .task-type-1,#my-svg .section-type-1{fill:hsl(0, 0%, 98.9215686275%);}#my-svg .task-type-2,#my-svg .section-type-2{fill:hsl(64, 0%, 93.3333333333%);}#my-svg .task-type-3,#my-svg .section-type-3{fill:hsl(64, 0%, 98.9215686275%);}#my-svg .task-type-4,#my-svg .section-type-4{fill:hsl(-64, 0%, 93.3333333333%);}#my-svg .task-type-5,#my-svg .section-type-5{fill:hsl(-64, 0%, 98.9215686275%);}#my-svg .task-type-6,#my-svg .section-type-6{fill:hsl(128, 0%, 93.3333333333%);}#my-svg .task-type-7,#my-svg .section-type-7{fill:hsl(128, 0%, 98.9215686275%);}#my-svg .label-icon{display:inline-block;height:1em;overflow:visible;vertical-align:-0.125em;}#my-svg .node .label-icon path{fill:currentColor;stroke:revert;stroke-width:revert;}#my-svg .node .neo-node{stroke:#999;}#my-svg [data-look="neo"].node rect,#my-svg [data-look="neo"].cluster rect,#my-svg [data-look="neo"].node polygon{stroke:url(#my-svg-gradient);filter:drop-shadow( 1px 2px 2px rgba(185,185,185,1));}#my-svg [data-look="neo"].swimlane.cluster rect{filter:none;}#my-svg [data-look="neo"].node path{stroke:url(#my-svg-gradient);stroke-width:1px;}#my-svg [data-look="neo"].node .outer-path{filter:drop-shadow( 1px 2px 2px rgba(185,185,185,1));}#my-svg [data-look="neo"].node .neo-line path{stroke:#999;filter:none;}#my-svg [data-look="neo"].node circle{stroke:url(#my-svg-gradient);filter:drop-shadow( 1px 2px 2px rgba(185,185,185,1));}#my-svg [data-look="neo"].node circle .state-start{fill:#000000;}#my-svg [data-look="neo"].icon-shape .icon{fill:url(#my-svg-gradient);filter:drop-shadow( 1px 2px 2px rgba(185,185,185,1));}#my-svg [data-look="neo"].icon-shape .icon-neo path{stroke:url(#my-svg-gradient);filter:drop-shadow( 1px 2px 2px rgba(185,185,185,1));}#my-svg :root{--mermaid-font-family:"trebuchet ms",verdana,arial,sans-serif;}</style><g/><defs><marker id="my-svg-arrowhead" refX="5" refY="2" markerWidth="6" markerHeight="4" orient="auto"><path d="M 0,0 V 4 L6,2 Z"/></marker></defs><circle cx="20" cy="60" class="actor-0" fill="#8FBC8F" stroke="#000" r="7"/><text x="40" y="67" class="legend"><tspan x="50">5</tspan></text><circle cx="20" cy="80" class="actor-1" fill="#7CFC00" stroke="#000" r="7"/><text x="40" y="87" class="legend"><tspan x="50">Customer</tspan></text><g><rect x="150" y="50" fill="#191970" stroke="#666" width="350" height="50" rx="3" ry="3" class="journey-section section-type-0"/><switch><foreignObject x="150" y="50" width="350" height="50"><div class="journey-section section-type-0" xmlns="http://www.w3.org/1999/xhtml" style="display: table; height: 100%; width: 100%;"><div class="label" style="display: table-cell; text-align: center; vertical-align: middle;">Discover</div></div></foreignObject><text x="325" y="75" dominant-baseline="central" alignment-baseline="central" class="journey-section section-type-0" style="text-anchor: middle; font-size: 14px; font-family: &quot;Open Sans&quot;, sans-serif;"><tspan x="325" dy="0">Discover</tspan></text></switch></g><g><line id="my-svg-task0" x1="225" y1="110" x2="225" y2="450" class="task-line" stroke-width="1px" stroke-dasharray="4 2" stroke="#666"/><circle cx="225" cy="330" class="face" r="15" stroke-width="2" overflow="visible"/><g><circle cx="220" cy="325" r="1.5" stroke-width="2" fill="#666" stroke="#666"/><circle cx="230" cy="325" r="1.5" stroke-width="2" fill="#666" stroke="#666"/><path class="mouth" d="M7.5,0A7.5,7.5,0,1,1,-7.5,0L-6.818,0A6.818,6.818,0,1,0,6.818,0Z" transform="translate(225,332)"/></g><rect x="150" y="110" fill="#191970" stroke="#666" width="150" height="50" rx="3" ry="3" class="task task-type-0"/><circle cx="164" cy="110" class="actor-1" fill="#7CFC00" stroke="#000" r="7"><title>Customer</title></circle><switch><foreignObject x="150" y="110" width="150" height="50"><div class="task" xmlns="http://www.w3.org/1999/xhtml" style="display: table; height: 100%; width: 100%;"><div class="label" style="display: table-cell; text-align: center; vertical-align: middle;">Receive storefront link (social, DM, referral)</div></div></foreignObject><text x="225" y="135" dominant-baseline="central" alignment-baseline="central" class="task" style="text-anchor: middle; font-size: 14px; font-family: &quot;Open Sans&quot;, sans-serif;"><tspan x="225" dy="0">Receive storefront link (social, DM, referral)</tspan></text></switch></g><g><line id="my-svg-task1" x1="425" y1="110" x2="425" y2="450" class="task-line" stroke-width="1px" stroke-dasharray="4 2" stroke="#666"/><circle cx="425" cy="NaN" class="face" r="15" stroke-width="2" overflow="visible"/><g><circle cx="420" cy="NaN" r="1.5" stroke-width="2" fill="#666" stroke="#666"/><circle cx="430" cy="NaN" r="1.5" stroke-width="2" fill="#666" stroke="#666"/><line class="mouth" stroke="#666" x1="420" y1="NaN" x2="430" y2="NaN" stroke-width="1px"/></g><rect x="350" y="110" fill="#191970" stroke="#666" width="150" height="50" rx="3" ry="3" class="task task-type-0"/><circle cx="364" cy="110" class="actor-0" fill="#8FBC8F" stroke="#000" r="7"><title>5</title></circle><switch><foreignObject x="350" y="110" width="150" height="50"><div class="task" xmlns="http://www.w3.org/1999/xhtml" style="display: table; height: 100%; width: 100%;"><div class="label" style="display: table-cell; text-align: center; vertical-align: middle;">Open bookmi.com/</div></div></foreignObject><text x="425" y="135" dominant-baseline="central" alignment-baseline="central" class="task" style="text-anchor: middle; font-size: 14px; font-family: &quot;Open Sans&quot;, sans-serif;"><tspan x="425" dy="0">Open bookmi.com/</tspan></text></switch></g><g><rect x="550" y="50" fill="#8B008B" stroke="#666" width="550" height="50" rx="3" ry="3" class="journey-section section-type-1"/><switch><foreignObject x="550" y="50" width="550" height="50"><div class="journey-section section-type-1" xmlns="http://www.w3.org/1999/xhtml" style="display: table; height: 100%; width: 100%;"><div class="label" style="display: table-cell; text-align: center; vertical-align: middle;">Book</div></div></foreignObject><text x="825" y="75" dominant-baseline="central" alignment-baseline="central" class="journey-section section-type-1" style="text-anchor: middle; font-size: 14px; font-family: &quot;Open Sans&quot;, sans-serif;"><tspan x="825" dy="0">Book</tspan></text></switch></g><g><line id="my-svg-task2" x1="625" y1="110" x2="625" y2="450" class="task-line" stroke-width="1px" stroke-dasharray="4 2" stroke="#666"/><circle cx="625" cy="300" class="face" r="15" stroke-width="2" overflow="visible"/><g><circle cx="620" cy="295" r="1.5" stroke-width="2" fill="#666" stroke="#666"/><circle cx="630" cy="295" r="1.5" stroke-width="2" fill="#666" stroke="#666"/><path class="mouth" d="M7.5,0A7.5,7.5,0,1,1,-7.5,0L-6.818,0A6.818,6.818,0,1,0,6.818,0Z" transform="translate(625,302)"/></g><rect x="550" y="110" fill="#8B008B" stroke="#666" width="150" height="50" rx="3" ry="3" class="task task-type-1"/><circle cx="564" cy="110" class="actor-1" fill="#7CFC00" stroke="#000" r="7"><title>Customer</title></circle><switch><foreignObject x="550" y="110" width="150" height="50"><div class="task" xmlns="http://www.w3.org/1999/xhtml" style="display: table; height: 100%; width: 100%;"><div class="label" style="display: table-cell; text-align: center; vertical-align: middle;">Browse services</div></div></foreignObject><text x="625" y="135" dominant-baseline="central" alignment-baseline="central" class="task" style="text-anchor: middle; font-size: 14px; font-family: &quot;Open Sans&quot;, sans-serif;"><tspan x="625" dy="0">Browse services</tspan></text></switch></g><g><line id="my-svg-task3" x1="825" y1="110" x2="825" y2="450" class="task-line" stroke-width="1px" stroke-dasharray="4 2" stroke="#666"/><circle cx="825" cy="300" class="face" r="15" stroke-width="2" overflow="visible"/><g><circle cx="820" cy="295" r="1.5" stroke-width="2" fill="#666" stroke="#666"/><circle cx="830" cy="295" r="1.5" stroke-width="2" fill="#666" stroke="#666"/><path class="mouth" d="M7.5,0A7.5,7.5,0,1,1,-7.5,0L-6.818,0A6.818,6.818,0,1,0,6.818,0Z" transform="translate(825,302)"/></g><rect x="750" y="110" fill="#8B008B" stroke="#666" width="150" height="50" rx="3" ry="3" class="task task-type-1"/><circle cx="764" cy="110" class="actor-1" fill="#7CFC00" stroke="#000" r="7"><title>Customer</title></circle><switch><foreignObject x="750" y="110" width="150" height="50"><div class="task" xmlns="http://www.w3.org/1999/xhtml" style="display: table; height: 100%; width: 100%;"><div class="label" style="display: table-cell; text-align: center; vertical-align: middle;">Pick service + time slot</div></div></foreignObject><text x="825" y="135" dominant-baseline="central" alignment-baseline="central" class="task" style="text-anchor: middle; font-size: 14px; font-family: &quot;Open Sans&quot;, sans-serif;"><tspan x="825" dy="0">Pick service + time slot</tspan></text></switch></g><g><line id="my-svg-task4" x1="1025" y1="110" x2="1025" y2="450" class="task-line" stroke-width="1px" stroke-dasharray="4 2" stroke="#666"/><circle cx="1025" cy="330" class="face" r="15" stroke-width="2" overflow="visible"/><g><circle cx="1020" cy="325" r="1.5" stroke-width="2" fill="#666" stroke="#666"/><circle cx="1030" cy="325" r="1.5" stroke-width="2" fill="#666" stroke="#666"/><path class="mouth" d="M7.5,0A7.5,7.5,0,1,1,-7.5,0L-6.818,0A6.818,6.818,0,1,0,6.818,0Z" transform="translate(1025,332)"/></g><rect x="950" y="110" fill="#8B008B" stroke="#666" width="150" height="50" rx="3" ry="3" class="task task-type-1"/><circle cx="964" cy="110" class="actor-1" fill="#7CFC00" stroke="#000" r="7"><title>Customer</title></circle><switch><foreignObject x="950" y="110" width="150" height="50"><div class="task" xmlns="http://www.w3.org/1999/xhtml" style="display: table; height: 100%; width: 100%;"><div class="label" style="display: table-cell; text-align: center; vertical-align: middle;">Enter name, email, phone</div></div></foreignObject><text x="1025" y="135" dominant-baseline="central" alignment-baseline="central" class="task" style="text-anchor: middle; font-size: 14px; font-family: &quot;Open Sans&quot;, sans-serif;"><tspan x="1025" dy="0">Enter name, email, phone</tspan></text></switch></g><g><rect x="1150" y="50" fill="#4B0082" stroke="#666" width="550" height="50" rx="3" ry="3" class="journey-section section-type-2"/><switch><foreignObject x="1150" y="50" width="550" height="50"><div class="journey-section section-type-2" xmlns="http://www.w3.org/1999/xhtml" style="display: table; height: 100%; width: 100%;"><div class="label" style="display: table-cell; text-align: center; vertical-align: middle;">Pay</div></div></foreignObject><text x="1425" y="75" dominant-baseline="central" alignment-baseline="central" class="journey-section section-type-2" style="text-anchor: middle; font-size: 14px; font-family: &quot;Open Sans&quot;, sans-serif;"><tspan x="1425" dy="0">Pay</tspan></text></switch></g><g><line id="my-svg-task5" x1="1225" y1="110" x2="1225" y2="450" class="task-line" stroke-width="1px" stroke-dasharray="4 2" stroke="#666"/><circle cx="1225" cy="330" class="face" r="15" stroke-width="2" overflow="visible"/><g><circle cx="1220" cy="325" r="1.5" stroke-width="2" fill="#666" stroke="#666"/><circle cx="1230" cy="325" r="1.5" stroke-width="2" fill="#666" stroke="#666"/><path class="mouth" d="M7.5,0A7.5,7.5,0,1,1,-7.5,0L-6.818,0A6.818,6.818,0,1,0,6.818,0Z" transform="translate(1225,332)"/></g><rect x="1150" y="110" fill="#4B0082" stroke="#666" width="150" height="50" rx="3" ry="3" class="task task-type-2"/><circle cx="1164" cy="110" class="actor-1" fill="#7CFC00" stroke="#000" r="7"><title>Customer</title></circle><switch><foreignObject x="1150" y="110" width="150" height="50"><div class="task" xmlns="http://www.w3.org/1999/xhtml" style="display: table; height: 100%; width: 100%;"><div class="label" style="display: table-cell; text-align: center; vertical-align: middle;">Review price (server-computed, tip-adjustable)</div></div></foreignObject><text x="1225" y="135" dominant-baseline="central" alignment-baseline="central" class="task" style="text-anchor: middle; font-size: 14px; font-family: &quot;Open Sans&quot;, sans-serif;"><tspan x="1225" dy="0">Review price (server-computed, tip-adjustable)</tspan></text></switch></g><g><line id="my-svg-task6" x1="1425" y1="110" x2="1425" y2="450" class="task-line" stroke-width="1px" stroke-dasharray="4 2" stroke="#666"/><circle cx="1425" cy="360" class="face" r="15" stroke-width="2" overflow="visible"/><g><circle cx="1420" cy="355" r="1.5" stroke-width="2" fill="#666" stroke="#666"/><circle cx="1430" cy="355" r="1.5" stroke-width="2" fill="#666" stroke="#666"/><line class="mouth" stroke="#666" x1="1420" y1="367" x2="1430" y2="367" stroke-width="1px"/></g><rect x="1350" y="110" fill="#4B0082" stroke="#666" width="150" height="50" rx="3" ry="3" class="task task-type-2"/><circle cx="1364" cy="110" class="actor-1" fill="#7CFC00" stroke="#000" r="7"><title>Customer</title></circle><switch><foreignObject x="1350" y="110" width="150" height="50"><div class="task" xmlns="http://www.w3.org/1999/xhtml" style="display: table; height: 100%; width: 100%;"><div class="label" style="display: table-cell; text-align: center; vertical-align: middle;">Complete payment (Monnify popup)</div></div></foreignObject><text x="1425" y="135" dominant-baseline="central" alignment-baseline="central" class="task" style="text-anchor: middle; font-size: 14px; font-family: &quot;Open Sans&quot;, sans-serif;"><tspan x="1425" dy="0">Complete payment (Monnify popup)</tspan></text></switch></g><g><line id="my-svg-task7" x1="1625" y1="110" x2="1625" y2="450" class="task-line" stroke-width="1px" stroke-dasharray="4 2" stroke="#666"/><circle cx="1625" cy="300" class="face" r="15" stroke-width="2" overflow="visible"/><g><circle cx="1620" cy="295" r="1.5" stroke-width="2" fill="#666" stroke="#666"/><circle cx="1630" cy="295" r="1.5" stroke-width="2" fill="#666" stroke="#666"/><path class="mouth" d="M7.5,0A7.5,7.5,0,1,1,-7.5,0L-6.818,0A6.818,6.818,0,1,0,6.818,0Z" transform="translate(1625,302)"/></g><rect x="1550" y="110" fill="#4B0082" stroke="#666" width="150" height="50" rx="3" ry="3" class="task task-type-2"/><circle cx="1564" cy="110" class="actor-1" fill="#7CFC00" stroke="#000" r="7"><title>Customer</title></circle><switch><foreignObject x="1550" y="110" width="150" height="50"><div class="task" xmlns="http://www.w3.org/1999/xhtml" style="display: table; height: 100%; width: 100%;"><div class="label" style="display: table-cell; text-align: center; vertical-align: middle;">See booking confirmed instantly</div></div></foreignObject><text x="1625" y="135" dominant-baseline="central" alignment-baseline="central" class="task" style="text-anchor: middle; font-size: 14px; font-family: &quot;Open Sans&quot;, sans-serif;"><tspan x="1625" dy="0">See booking confirmed instantly</tspan></text></switch></g><g><rect x="1750" y="50" fill="#2F4F4F" stroke="#666" width="550" height="50" rx="3" ry="3" class="journey-section section-type-3"/><switch><foreignObject x="1750" y="50" width="550" height="50"><div class="journey-section section-type-3" xmlns="http://www.w3.org/1999/xhtml" style="display: table; height: 100%; width: 100%;"><div class="label" style="display: table-cell; text-align: center; vertical-align: middle;">After</div></div></foreignObject><text x="2025" y="75" dominant-baseline="central" alignment-baseline="central" class="journey-section section-type-3" style="text-anchor: middle; font-size: 14px; font-family: &quot;Open Sans&quot;, sans-serif;"><tspan x="2025" dy="0">After</tspan></text></switch></g><g><line id="my-svg-task8" x1="1825" y1="110" x2="1825" y2="450" class="task-line" stroke-width="1px" stroke-dasharray="4 2" stroke="#666"/><circle cx="1825" cy="300" class="face" r="15" stroke-width="2" overflow="visible"/><g><circle cx="1820" cy="295" r="1.5" stroke-width="2" fill="#666" stroke="#666"/><circle cx="1830" cy="295" r="1.5" stroke-width="2" fill="#666" stroke="#666"/><path class="mouth" d="M7.5,0A7.5,7.5,0,1,1,-7.5,0L-6.818,0A6.818,6.818,0,1,0,6.818,0Z" transform="translate(1825,302)"/></g><rect x="1750" y="110" fill="#2F4F4F" stroke="#666" width="150" height="50" rx="3" ry="3" class="task task-type-3"/><circle cx="1764" cy="110" class="actor-1" fill="#7CFC00" stroke="#000" r="7"><title>Customer</title></circle><switch><foreignObject x="1750" y="110" width="150" height="50"><div class="task" xmlns="http://www.w3.org/1999/xhtml" style="display: table; height: 100%; width: 100%;"><div class="label" style="display: table-cell; text-align: center; vertical-align: middle;">Receive confirmation email with booking code</div></div></foreignObject><text x="1825" y="135" dominant-baseline="central" alignment-baseline="central" class="task" style="text-anchor: middle; font-size: 14px; font-family: &quot;Open Sans&quot;, sans-serif;"><tspan x="1825" dy="0">Receive confirmation email with booking code</tspan></text></switch></g><g><line id="my-svg-task9" x1="2025" y1="110" x2="2025" y2="450" class="task-line" stroke-width="1px" stroke-dasharray="4 2" stroke="#666"/><circle cx="2025" cy="390" class="face" r="15" stroke-width="2" overflow="visible"/><g><circle cx="2020" cy="385" r="1.5" stroke-width="2" fill="#666" stroke="#666"/><circle cx="2030" cy="385" r="1.5" stroke-width="2" fill="#666" stroke="#666"/><path class="mouth" d="M-7.5,0A7.5,7.5,0,1,1,7.5,0L6.818,0A6.818,6.818,0,1,0,-6.818,0Z" transform="translate(2025,397)"/></g><rect x="1950" y="110" fill="#2F4F4F" stroke="#666" width="150" height="50" rx="3" ry="3" class="task task-type-3"/><circle cx="1964" cy="110" class="actor-1" fill="#7CFC00" stroke="#000" r="7"><title>Customer</title></circle><switch><foreignObject x="1950" y="110" width="150" height="50"><div class="task" xmlns="http://www.w3.org/1999/xhtml" style="display: table; height: 100%; width: 100%;"><div class="label" style="display: table-cell; text-align: center; vertical-align: middle;">(if needed) Reopen payment link to resume a pending booking</div></div></foreignObject><text x="2025" y="135" dominant-baseline="central" alignment-baseline="central" class="task" style="text-anchor: middle; font-size: 14px; font-family: &quot;Open Sans&quot;, sans-serif;"><tspan x="2025" dy="0">(if needed) Reopen payment link to resume a pending booking</tspan></text></switch></g><g><line id="my-svg-task10" x1="2225" y1="110" x2="2225" y2="450" class="task-line" stroke-width="1px" stroke-dasharray="4 2" stroke="#666"/><circle cx="2225" cy="300" class="face" r="15" stroke-width="2" overflow="visible"/><g><circle cx="2220" cy="295" r="1.5" stroke-width="2" fill="#666" stroke="#666"/><circle cx="2230" cy="295" r="1.5" stroke-width="2" fill="#666" stroke="#666"/><path class="mouth" d="M7.5,0A7.5,7.5,0,1,1,-7.5,0L-6.818,0A6.818,6.818,0,1,0,6.818,0Z" transform="translate(2225,302)"/></g><rect x="2150" y="110" fill="#2F4F4F" stroke="#666" width="150" height="50" rx="3" ry="3" class="task task-type-3"/><circle cx="2164" cy="110" class="actor-1" fill="#7CFC00" stroke="#000" r="7"><title>Customer</title></circle><switch><foreignObject x="2150" y="110" width="150" height="50"><div class="task" xmlns="http://www.w3.org/1999/xhtml" style="display: table; height: 100%; width: 100%;"><div class="label" style="display: table-cell; text-align: center; vertical-align: middle;">Show up / attend</div></div></foreignObject><text x="2225" y="135" dominant-baseline="central" alignment-baseline="central" class="task" style="text-anchor: middle; font-size: 14px; font-family: &quot;Open Sans&quot;, sans-serif;"><tspan x="2225" dy="0">Show up / attend</tspan></text></switch></g><text x="150" font-size="4ex" font-weight="bold" y="25" fill="" font-family="&quot;trebuchet ms&quot;, verdana, arial, sans-serif">Audience (Customer) Journey</text><line x1="150" y1="200" x2="2346" y2="200" stroke-width="4" stroke="black" marker-end="url(#my-svg-arrowhead)"/></svg>