<svg width="898" height="442" viewBox="0 0 898 442" fill="none" xmlns="http://www.w3.org/2000/svg">
<path d="M435.628 4.20996C443.211 -1.40276 452.48 -1.40276 460.344 4.20996L526.346 51.6367C534.772 57.5301 539.827 69.0368 539.827 81.3848V228.438L644.026 124.322C653.014 115.623 664.529 111.132 674.64 112.815L754.686 126.006C763.954 127.409 770.694 134.144 772.099 143.405L785.299 223.387C786.984 233.49 782.49 245.276 773.783 253.976L669.584 358.092H817.036C829.394 358.092 840.91 363.424 846.808 371.562L894.272 437.512H895.115C896.184 438.954 897.05 440.457 897.712 442H539.776C535.804 394.904 496.452 358.092 448.267 358.092C400.081 358.092 360.729 394.904 356.757 442H0C0.654821 440.469 1.50131 438.966 2.54102 437.512L49.7256 371.843C55.6237 363.424 67.1392 358.372 79.4971 358.372H226.387L122.188 254.256C113.481 245.276 108.987 233.77 110.672 223.667L123.873 143.686C125.277 134.425 132.018 127.689 141.286 126.286L221.331 113.097C231.442 111.413 243.239 115.903 251.945 124.603L356.145 228.719V81.3848C356.145 69.0368 361.481 57.5301 369.626 51.6367L435.628 4.20996Z" fill="#FCD846"/>
</svg>
