<svg width="1458" height="1461" viewBox="0 0 1458 1461" fill="none" xmlns="http://www.w3.org/2000/svg">
<path d="M707.153 10.8145C713.889 5.82334 721.448 3.57431 729 4.06641V583.719C728.531 583.714 728.062 583.711 727.592 583.711C645.386 583.711 579.075 650.041 579.075 732.272C579.075 814.504 645.84 880.835 727.592 880.835C809.798 880.835 876.107 814.504 876.107 732.272C876.107 731.514 876.1 730.756 876.089 730H1456.93C1457.44 737.553 1455.19 745.253 1450.19 752.263L1373.43 859.027C1363.89 872.657 1345.27 880.835 1325.29 880.835H1086.85L1255.35 1049.39C1269.42 1063.93 1276.69 1082.55 1273.97 1098.91L1252.62 1228.39C1250.35 1243.38 1239.45 1254.29 1224.46 1256.56L1095.02 1277.91C1078.67 1280.64 1059.59 1273.37 1045.52 1259.28L877.016 1090.73V1329.25C877.016 1349.24 868.387 1367.86 855.216 1377.41L748.483 1454.19C736.221 1463.27 721.233 1463.27 708.517 1454.19L601.784 1377.41C588.159 1367.86 579.984 1349.24 579.984 1329.25V1090.73L411.484 1259.28C396.951 1273.37 378.33 1280.64 361.979 1277.91L232.538 1256.56C217.55 1254.28 206.651 1243.38 204.38 1228.39L183.033 1098.91C180.308 1082.55 187.575 1063.47 201.654 1049.39L370.154 880.835H131.711C111.727 880.835 93.106 872.203 83.5684 859.027L6.8125 752.263C-2.27086 739.996 -2.27081 725.004 6.8125 712.283L83.1143 605.973C92.6519 592.343 111.273 584.165 131.257 584.165H368.792L200.292 415.612C186.213 401.074 178.946 382.447 181.671 366.092L203.017 236.611C205.287 221.619 216.188 210.715 231.176 208.443L360.616 187.091C376.967 184.365 396.043 191.634 410.122 205.718L578.621 374.27V135.752C578.621 115.762 587.251 97.1354 600.422 87.5947L707.153 10.8145ZM729 583.719C809.797 584.464 874.887 649.291 876.089 730H729V583.719ZM1458 730H1456.93C1456.51 723.846 1454.27 717.79 1450.19 712.283H1448.83L1372.07 605.518C1362.53 592.343 1343.91 583.711 1323.93 583.711H1085.48L1253.98 415.158C1268.06 401.074 1275.33 381.993 1272.6 365.638L1251.26 236.157C1248.99 221.165 1238.09 210.261 1223.1 207.989L1093.66 186.636C1077.31 183.91 1058.69 191.18 1044.15 205.264L875.653 373.815V135.752C875.653 115.762 867.478 97.1353 853.853 87.5947L747.121 10.8145C741.39 6.7193 735.197 4.47017 729 4.06641V0H1458V730Z" fill="#3651E9"/>
</svg>
