<svg preserveAspectRatio="none" width="100%" height="100%" overflow="visible" style="display: block;" viewBox="0 0 28 28" fill="none" xmlns="http://www.w3.org/2000/svg">
<g id="digitalmenuicon.svg">
<g id="Group" opacity="0.5">
<path id="Vector" d="M12.3119 15.6881C11.8176 15.1937 11.2025 14.9923 10.5211 14.9007C9.87565 14.8139 9.06254 14.8139 8.08744 14.814H6.79836C6.12089 14.814 5.55548 14.8139 5.09627 14.8576C4.6162 14.9032 4.16879 15.0023 3.75844 15.2537C3.35686 15.4999 3.01922 15.8375 2.77313 16.2391C2.52166 16.6494 2.42262 17.0968 2.37697 17.5769C2.33331 18.0361 2.33332 18.6016 2.33333 19.2791V19.3587C2.33332 20.3898 2.33332 21.2213 2.39696 21.8908C2.4626 22.5811 2.60162 23.1825 2.93306 23.7233C3.26863 24.271 3.72904 24.7314 4.27665 25.067C4.8175 25.3983 5.41896 25.5374 6.10928 25.6031C6.77868 25.6667 7.61021 25.6667 8.6413 25.6667H8.72092C9.3984 25.6667 9.96389 25.6667 10.4231 25.623C10.9032 25.5774 11.3506 25.4784 11.7609 25.2268C12.1625 24.9808 12.5001 24.6431 12.7463 24.2416C12.9977 23.8311 13.0968 23.3839 13.1424 22.9038C13.1861 22.4446 13.186 21.8791 13.186 21.2016V19.9126C13.1861 18.9375 13.1861 18.1244 13.0993 17.4789C13.0077 16.7976 12.8063 16.1824 12.3119 15.6881Z" fill="#FF8A3D"/>
<path id="Vector_2" d="M10.4231 2.37697C10.9032 2.42262 11.3506 2.52166 11.7609 2.77313C12.1625 3.01922 12.5001 3.35686 12.7463 3.75844C12.9977 4.16879 13.0968 4.6162 13.1424 5.09627C13.1861 5.55547 13.186 6.12101 13.186 6.79847V8.08747C13.1861 9.06255 13.1861 9.87565 13.0993 10.5211C13.0077 11.2025 12.8063 11.8176 12.3119 12.3119C11.8176 12.8063 11.2025 13.0077 10.5211 13.0993C9.87565 13.1861 9.06251 13.1861 8.08744 13.186H6.79829C6.12083 13.186 5.55547 13.1861 5.09627 13.1424C4.6162 13.0968 4.16879 12.9977 3.75844 12.7463C3.35686 12.5001 3.01922 12.1625 2.77313 11.7609C2.52166 11.3506 2.42262 10.9032 2.37697 10.4231C2.33331 9.96388 2.33332 9.39842 2.33333 8.7209V8.64125C2.33332 7.61019 2.33332 6.77867 2.39696 6.10928C2.4626 5.41896 2.60162 4.8175 2.93306 4.27665C3.26863 3.72904 3.72904 3.26863 4.27665 2.93306C4.8175 2.60162 5.41896 2.4626 6.10928 2.39696C6.77867 2.33332 7.61025 2.33332 8.64131 2.33333H8.72095C9.39847 2.33332 9.96388 2.33331 10.4231 2.37697Z" fill="#FF8A3D"/>
<path id="Vector_3" d="M19.3587 2.33333H19.2791C18.6016 2.33332 18.0361 2.33331 17.5769 2.37697C17.0968 2.42262 16.6494 2.52166 16.2391 2.77313C15.8375 3.01922 15.4999 3.35686 15.2537 3.75844C15.0023 4.16879 14.9032 4.6162 14.8576 5.09627C14.8139 5.55549 14.814 6.12096 14.814 6.79846V8.08744C14.8139 9.06254 14.8139 9.87565 14.9007 10.5211C14.9923 11.2025 15.1937 11.8176 15.6881 12.3119C16.1824 12.8063 16.7976 13.0077 17.4789 13.0993C18.1244 13.1861 18.9375 13.1861 19.9126 13.186H21.2016C21.8791 13.186 22.4446 13.1861 22.9038 13.1424C23.3839 13.0968 23.8311 12.9977 24.2416 12.7463C24.6431 12.5001 24.9808 12.1625 25.2268 11.7609C25.4784 11.3506 25.5774 10.9032 25.623 10.4231C25.6667 9.96389 25.6667 9.39852 25.6667 8.72103V8.6413C25.6667 7.61021 25.6667 6.77868 25.6031 6.10928C25.5374 5.41896 25.3983 4.8175 25.067 4.27665C24.7314 3.72904 24.271 3.26863 23.7233 2.93306C23.1825 2.60162 22.5811 2.4626 21.8908 2.39696C21.2213 2.33332 20.3898 2.33332 19.3587 2.33333Z" fill="#FF8A3D"/>
</g>
<path id="Vector_4" opacity="0.4" d="M16.4414 24.8528C16.4414 25.3023 16.077 25.6668 15.6274 25.6668C15.1779 25.6668 14.8135 25.3023 14.8135 24.8528V21.597H16.4414V24.8528Z" fill="#FF8A3D"/>
<path id="Vector_5" opacity="0.5" d="M24.8526 14.8141C24.4031 14.8141 24.0386 15.1784 24.0386 15.628V19.4264H25.6664V15.628C25.6664 15.1784 25.3021 14.8141 24.8526 14.8141Z" fill="#FF8A3D"/>
<path id="Vector_6" d="M18.7554 19.3868C18.6667 19.6013 18.6667 19.8731 18.6667 20.4167C18.6667 20.9602 18.6667 21.232 18.7554 21.4465C18.8739 21.7323 19.101 21.9595 19.3868 22.0779C19.6013 22.1667 19.8731 22.1667 20.4167 22.1667C20.9602 22.1667 21.232 22.1667 21.4465 22.0779C21.7323 21.9595 21.9595 21.7323 22.0779 21.4465C22.1667 21.232 22.1667 20.9602 22.1667 20.4167C22.1667 19.8731 22.1667 19.6013 22.0779 19.3868C21.9595 19.101 21.7323 18.8739 21.4465 18.7554C21.232 18.6667 20.9602 18.6667 20.4167 18.6667C19.8731 18.6667 19.6013 18.6667 19.3868 18.7554C19.101 18.8739 18.8739 19.101 18.7554 19.3868Z" fill="#FF8A3D"/>
<path id="Vector_7" opacity="0.7" d="M25.6661 21.6244V21.597H24.0381C24.0381 22.1138 24.0376 22.4607 24.0193 22.7292C24.0016 22.9905 23.9695 23.1177 23.9349 23.2014C23.7972 23.5338 23.5331 23.7979 23.2007 23.9356C23.1169 23.9703 22.9898 24.0023 22.7285 24.0201C22.46 24.0385 22.1131 24.0388 21.5963 24.0388H19.4257V25.6668H21.6237C22.106 25.6668 22.5087 25.6668 22.8394 25.6443C23.1834 25.6207 23.5086 25.5702 23.8237 25.4396C24.5549 25.1367 25.136 24.5557 25.4388 23.8244C25.5694 23.5093 25.62 23.1842 25.6436 22.8401C25.6661 22.5094 25.6661 22.1068 25.6661 21.6244Z" fill="#FF8A3D"/>
<path id="Vector_8" opacity="0.6" d="M14.8135 19.3849V19.4264H16.4414C16.4414 18.6474 16.4424 18.1244 16.4829 17.7256C16.5221 17.3405 16.5914 17.1626 16.67 17.0449C16.769 16.8967 16.8961 16.7696 17.0443 16.6706C17.162 16.592 17.3399 16.5227 17.725 16.4835C18.1238 16.4429 18.6468 16.442 19.4259 16.442H21.5964V14.8141H19.3843C18.6576 14.814 18.0512 14.814 17.5603 14.8639C17.0465 14.9162 16.5696 15.0298 16.1399 15.3171C15.814 15.5348 15.5342 15.8145 15.3165 16.1405C15.0293 16.5702 14.9156 17.0471 14.8633 17.5609C14.8134 18.0518 14.8135 18.6582 14.8135 19.3849Z" fill="#FF8A3D"/>
<path id="Vector_9" d="M6.42682 21.8054C6.68156 21.9861 7.04235 21.9861 7.76392 21.9861C8.48548 21.9861 8.84627 21.9861 9.10101 21.8054C9.19091 21.7415 9.26939 21.663 9.33317 21.5732C9.51392 21.3184 9.51392 20.9577 9.51392 20.2361C9.51392 19.5145 9.51392 19.1538 9.33317 18.899C9.26939 18.8091 9.19091 18.7306 9.10101 18.6668C8.84627 18.4861 8.48546 18.4861 7.7639 18.4861C7.04234 18.4861 6.68156 18.4861 6.42682 18.6668C6.33693 18.7306 6.25844 18.8091 6.19466 18.899C6.01392 19.1538 6.01392 19.5145 6.01392 20.2361C6.01392 20.9577 6.01392 21.3184 6.19466 21.5732C6.25844 21.663 6.33693 21.7415 6.42682 21.8054Z" fill="#FF8A3D"/>
<path id="Vector_10" d="M7.76363 9.51406C7.04206 9.51406 6.68128 9.51406 6.42654 9.33331C6.33664 9.26953 6.25816 9.19105 6.19438 9.10116C6.01363 8.84641 6.01363 8.48562 6.01363 7.76406C6.01363 7.04249 6.01363 6.68171 6.19438 6.42696C6.25816 6.33708 6.33664 6.25858 6.42654 6.19481C6.68128 6.01406 7.04206 6.01406 7.76363 6.01406C8.4852 6.01406 8.84598 6.01406 9.10073 6.19481C9.19061 6.25858 9.2691 6.33708 9.33288 6.42696C9.51363 6.68171 9.51363 7.04249 9.51363 7.76406C9.51363 8.48562 9.51363 8.84641 9.33288 9.10116C9.2691 9.19105 9.19061 9.26953 9.10073 9.33331C8.84598 9.51406 8.4852 9.51406 7.76363 9.51406Z" fill="#FF8A3D"/>
<path id="Vector_11" d="M18.8993 9.33347C19.154 9.51423 19.5148 9.51423 20.2364 9.51423C20.9579 9.51423 21.3187 9.51423 21.5734 9.33347C21.6634 9.26969 21.7419 9.19121 21.8056 9.10133C21.9864 8.84658 21.9864 8.4858 21.9864 7.76422C21.9864 7.04265 21.9864 6.68187 21.8056 6.42713C21.7419 6.33724 21.6634 6.25876 21.5734 6.19498C21.3187 6.01423 20.9579 6.01423 20.2364 6.01423C19.5148 6.01423 19.154 6.01423 18.8993 6.19498C18.8093 6.25876 18.7309 6.33724 18.6671 6.42713C18.4864 6.68187 18.4864 7.04269 18.4864 7.76425C18.4864 8.4858 18.4864 8.84659 18.6671 9.10133C18.7309 9.19121 18.8093 9.26969 18.8993 9.33347Z" fill="#FF8A3D"/>
</g>
</svg>
