<svg preserveAspectRatio="none" width="100%" height="100%" overflow="visible" style="display: block;" viewBox="0 0 2313.33 3240.87" fill="none" xmlns="http://www.w3.org/2000/svg">
<g id="Frame 16" opacity="0.2">
<path id="Vector" d="M453.706 221.733L429.669 188.309C426.682 184.185 420.851 181.482 414.593 181.482H339.924L392.69 128.716C397.099 124.307 399.375 118.333 398.521 113.213L391.837 72.6783C391.126 67.9848 387.712 64.5713 383.019 63.8602L342.484 57.1755C337.364 56.3221 331.532 58.5977 326.981 63.0068L274.215 115.773V41.246C274.215 34.988 271.654 29.1566 267.388 26.1699L233.964 2.13341C229.982 -0.711138 225.288 -0.711138 221.448 2.13341L188.025 26.1699C183.9 29.1566 181.198 34.988 181.198 41.246V115.915L128.431 63.149C124.022 58.74 118.049 56.4643 112.929 57.3177L72.3938 64.0024C67.7003 64.7135 64.2868 68.127 63.5757 72.8205L56.891 113.355C56.0376 118.476 58.3133 124.307 62.7223 128.858L115.489 181.625H41.1037C34.8457 181.625 29.0144 184.185 26.0276 188.451L2.13341 221.733C-0.711137 225.715 -0.711137 230.409 2.13341 234.249L26.1699 267.672C29.1566 271.797 34.988 274.499 41.246 274.499H115.915L63.149 327.266C58.74 331.675 56.4643 337.648 57.3177 342.768L64.0024 383.303C64.7135 387.997 68.127 391.41 72.8205 392.121L113.355 398.806C118.475 399.659 124.307 397.384 128.858 392.975L181.625 340.208V414.878C181.625 421.136 184.185 426.967 188.451 429.954L221.875 453.99C225.857 456.835 230.551 456.835 234.391 453.99L267.814 429.954C271.939 426.967 274.641 421.136 274.641 414.878V340.208L327.408 392.975C331.817 397.384 337.79 399.659 342.91 398.806L383.445 392.121C388.139 391.41 391.552 387.997 392.263 383.303L398.948 342.768C399.801 337.648 397.526 331.817 393.117 327.266L340.35 274.499H415.02C421.278 274.499 427.109 271.939 430.096 267.672L454.132 234.249C456.977 230.266 456.977 225.573 454.132 221.733H453.706ZM227.848 274.499C202.247 274.499 181.34 253.734 181.34 227.991C181.34 202.248 202.105 181.482 227.848 181.482C253.592 181.482 274.357 202.248 274.357 227.991C274.357 253.734 253.592 274.499 227.848 274.499Z" fill="#D95656"/>
<path id="Vector_2" d="M917.971 221.733L893.935 188.309C890.948 184.185 885.117 181.482 878.859 181.482H804.189L856.956 128.716C861.365 124.307 863.641 118.333 862.787 113.213L856.103 72.6783C855.391 67.9848 851.978 64.5713 847.284 63.8602L806.75 57.1755C801.629 56.3221 795.798 58.5977 791.247 63.0068L738.48 115.773V41.246C738.48 34.988 735.92 29.1566 731.653 26.1699L698.23 2.13341C694.248 -0.711138 689.554 -0.711138 685.714 2.13341L652.291 26.1699C648.166 29.1566 645.464 34.988 645.464 41.246V115.915L592.697 63.149C588.288 58.74 582.315 56.4643 577.194 57.3177L536.66 64.0024C531.966 64.7135 528.553 68.127 527.841 72.8205L521.157 113.355C520.303 118.476 522.579 124.307 526.988 128.858L579.755 181.625H505.37C499.112 181.625 493.28 184.185 490.293 188.451L466.399 221.733C463.555 225.715 463.555 230.409 466.399 234.249L490.436 267.672C493.422 271.797 499.254 274.499 505.512 274.499H580.181L527.415 327.266C523.006 331.675 520.73 337.648 521.583 342.768L528.268 383.303C528.979 387.997 532.393 391.41 537.086 392.121L577.621 398.806C582.741 399.659 588.573 397.384 593.124 392.975L645.89 340.208V414.878C645.89 421.136 648.45 426.967 652.717 429.954L686.141 453.99C690.123 456.835 694.817 456.835 698.657 453.99L732.08 429.954C736.205 426.967 738.907 421.136 738.907 414.878V340.208L791.673 392.975C796.083 397.384 802.056 399.659 807.176 398.806L847.711 392.121C852.405 391.41 855.818 387.997 856.529 383.303L863.214 342.768C864.067 337.648 861.792 331.817 857.383 327.266L804.616 274.499H879.286C885.544 274.499 891.375 271.939 894.362 267.672L918.398 234.249C921.243 230.266 921.243 225.573 918.398 221.733H917.971ZM692.114 274.499C666.513 274.499 645.606 253.734 645.606 227.991C645.606 202.248 666.371 181.482 692.114 181.482C717.857 181.482 738.623 202.248 738.623 227.991C738.623 253.734 717.857 274.499 692.114 274.499Z" fill="#D95656"/>
<path id="Vector_3" d="M1382.24 221.733L1358.2 188.309C1355.21 184.185 1349.38 181.482 1343.12 181.482H1268.46L1321.22 128.716C1325.63 124.307 1327.91 118.333 1327.05 113.213L1320.37 72.6783C1319.66 67.9848 1316.24 64.5713 1311.55 63.8602L1271.02 57.1755C1265.9 56.3221 1260.06 58.5977 1255.51 63.0068L1202.75 115.773V41.246C1202.75 34.988 1200.19 29.1566 1195.92 26.1699L1162.5 2.13341C1158.51 -0.711138 1153.82 -0.711138 1149.98 2.13341L1116.56 26.1699C1112.43 29.1566 1109.73 34.988 1109.73 41.246V115.915L1056.96 63.149C1052.55 58.74 1046.58 56.4643 1041.46 57.3177L1000.93 64.0024C996.232 64.7135 992.818 68.127 992.107 72.8205L985.423 113.355C984.569 118.476 986.845 124.307 991.254 128.858L1044.02 181.625H969.635C963.377 181.625 957.546 184.185 954.559 188.451L930.665 221.733C927.82 225.715 927.82 230.409 930.665 234.249L954.701 267.672C957.688 271.797 963.52 274.499 969.778 274.499H1044.45L991.681 327.266C987.272 331.675 984.996 337.648 985.849 342.768L992.534 383.303C993.245 387.997 996.659 391.41 1001.35 392.121L1041.89 398.806C1047.01 399.659 1052.84 397.384 1057.39 392.975L1110.16 340.208V414.878C1110.16 421.136 1112.72 426.967 1116.98 429.954L1150.41 453.99C1154.39 456.835 1159.08 456.835 1162.92 453.99L1196.35 429.954C1200.47 426.967 1203.17 421.136 1203.17 414.878V340.208L1255.94 392.975C1260.35 397.384 1266.32 399.659 1271.44 398.806L1311.98 392.121C1316.67 391.41 1320.08 387.997 1320.8 383.303L1327.48 342.768C1328.33 337.648 1326.06 331.817 1321.65 327.266L1268.88 274.499H1343.55C1349.81 274.499 1355.64 271.939 1358.63 267.672L1382.66 234.249C1385.51 230.266 1385.51 225.573 1382.66 221.733H1382.24ZM1156.38 274.499C1130.78 274.499 1109.87 253.734 1109.87 227.991C1109.87 202.248 1130.64 181.482 1156.38 181.482C1182.12 181.482 1202.89 202.248 1202.89 227.991C1202.89 253.734 1182.12 274.499 1156.38 274.499Z" fill="#D95656"/>
<path id="Vector_4" d="M1846.5 221.733L1822.47 188.309C1819.48 184.185 1813.65 181.482 1807.39 181.482H1732.72L1785.49 128.716C1789.9 124.307 1792.17 118.333 1791.32 113.213L1784.63 72.6783C1783.92 67.9848 1780.51 64.5713 1775.82 63.8602L1735.28 57.1755C1730.16 56.3221 1724.33 58.5977 1719.78 63.0068L1667.01 115.773V41.246C1667.01 34.988 1664.45 29.1566 1660.19 26.1699L1626.76 2.13341C1622.78 -0.711138 1618.09 -0.711138 1614.25 2.13341L1580.82 26.1699C1576.7 29.1566 1574 34.988 1574 41.246V115.915L1521.23 63.149C1516.82 58.74 1510.85 56.4643 1505.73 57.3177L1465.19 64.0024C1460.5 64.7135 1457.08 68.127 1456.37 72.8205L1449.69 113.355C1448.83 118.476 1451.11 124.307 1455.52 128.858L1508.29 181.625H1433.9C1427.64 181.625 1421.81 184.185 1418.82 188.451L1394.93 221.733C1392.09 225.715 1392.09 230.409 1394.93 234.249L1418.97 267.672C1421.95 271.797 1427.79 274.499 1434.04 274.499H1508.71L1455.95 327.266C1451.54 331.675 1449.26 337.648 1450.12 342.768L1456.8 383.303C1457.51 387.997 1460.92 391.41 1465.62 392.121L1506.15 398.806C1511.27 399.659 1517.1 397.384 1521.66 392.975L1574.42 340.208V414.878C1574.42 421.136 1576.98 426.967 1581.25 429.954L1614.67 453.99C1618.65 456.835 1623.35 456.835 1627.19 453.99L1660.61 429.954C1664.74 426.967 1667.44 421.136 1667.44 414.878V340.208L1720.21 392.975C1724.61 397.384 1730.59 399.659 1735.71 398.806L1776.24 392.121C1780.94 391.41 1784.35 387.997 1785.06 383.303L1791.75 342.768C1792.6 337.648 1790.32 331.817 1785.91 327.266L1733.15 274.499H1807.82C1814.08 274.499 1819.91 271.939 1822.89 267.672L1846.93 234.249C1849.77 230.266 1849.77 225.573 1846.93 221.733H1846.5ZM1620.65 274.499C1595.04 274.499 1574.14 253.734 1574.14 227.991C1574.14 202.248 1594.9 181.482 1620.65 181.482C1646.39 181.482 1667.15 202.248 1667.15 227.991C1667.15 253.734 1646.39 274.499 1620.65 274.499Z" fill="#D95656"/>
<path id="Vector_5" d="M2310.77 221.733L2286.73 188.309C2283.75 184.185 2277.91 181.482 2271.66 181.482H2196.99L2249.75 128.716C2254.16 124.307 2256.44 118.333 2255.58 113.213L2248.9 72.6783C2248.19 67.9848 2244.78 64.5713 2240.08 63.8602L2199.55 57.1755C2194.43 56.3221 2188.6 58.5977 2184.04 63.0068L2131.28 115.773V41.246C2131.28 34.988 2128.72 29.1566 2124.45 26.1699L2091.03 2.13341C2087.05 -0.711138 2082.35 -0.711138 2078.51 2.13341L2045.09 26.1699C2040.96 29.1566 2038.26 34.988 2038.26 41.246V115.915L1985.49 63.149C1981.09 58.74 1975.11 56.4643 1969.99 57.3177L1929.46 64.0024C1924.76 64.7135 1921.35 68.127 1920.64 72.8205L1913.95 113.355C1913.1 118.476 1915.38 124.307 1919.79 128.858L1972.55 181.625H1898.17C1891.91 181.625 1886.08 184.185 1883.09 188.451L1859.2 221.733C1856.35 225.715 1856.35 230.409 1859.2 234.249L1883.23 267.672C1886.22 271.797 1892.05 274.499 1898.31 274.499H1972.98L1920.21 327.266C1915.8 331.675 1913.53 337.648 1914.38 342.768L1921.07 383.303C1921.78 387.997 1925.19 391.41 1929.88 392.121L1970.42 398.806C1975.54 399.659 1981.37 397.384 1985.92 392.975L2038.69 340.208V414.878C2038.69 421.136 2041.25 426.967 2045.51 429.954L2078.94 453.99C2082.92 456.835 2087.61 456.835 2091.45 453.99L2124.88 429.954C2129 426.967 2131.7 421.136 2131.7 414.878V340.208L2184.47 392.975C2188.88 397.384 2194.85 399.659 2199.97 398.806L2240.51 392.121C2245.2 391.41 2248.62 387.997 2249.33 383.303L2256.01 342.768C2256.86 337.648 2254.59 331.817 2250.18 327.266L2197.41 274.499H2272.08C2278.34 274.499 2284.17 271.939 2287.16 267.672L2311.2 234.249C2314.04 230.266 2314.04 225.573 2311.2 221.733H2310.77ZM2084.91 274.499C2059.31 274.499 2038.4 253.734 2038.4 227.991C2038.4 202.248 2059.17 181.482 2084.91 181.482C2110.65 181.482 2131.42 202.248 2131.42 227.991C2131.42 253.734 2110.65 274.499 2084.91 274.499Z" fill="#D95656"/>
<path id="Vector_6" d="M453.706 685.856L429.669 652.433C426.682 648.308 420.851 645.606 414.593 645.606H339.924L392.69 592.84C397.099 588.43 399.375 582.457 398.521 577.337L391.837 536.802C391.126 532.108 387.712 528.695 383.019 527.984L342.484 521.299C337.364 520.446 331.532 522.721 326.981 527.13L274.215 579.897V505.37C274.215 499.112 271.654 493.28 267.388 490.293L233.964 466.257C229.982 463.412 225.288 463.412 221.448 466.257L188.025 490.293C183.9 493.28 181.198 499.112 181.198 505.37V580.039L128.431 527.273C124.022 522.864 118.049 520.588 112.929 521.441L72.3938 528.126C67.7003 528.837 64.2868 532.251 63.5757 536.944L56.891 577.479C56.0376 582.599 58.3133 588.43 62.7223 592.982L115.489 645.748H41.1037C34.8457 645.748 29.0144 648.308 26.0276 652.575L2.13341 685.856C-0.711137 689.839 -0.711137 694.532 2.13341 698.372L26.1699 731.796C29.1566 735.92 34.988 738.623 41.246 738.623H115.915L63.149 791.389C58.74 795.798 56.4643 801.772 57.3177 806.892L64.0024 847.427C64.7135 852.12 68.127 855.534 72.8205 856.245L113.355 862.93C118.475 863.783 124.307 861.507 128.858 857.098L181.625 804.332V879.001C181.625 885.259 184.185 891.091 188.451 894.077L221.875 918.114C225.857 920.958 230.551 920.958 234.391 918.114L267.814 894.077C271.939 891.091 274.641 885.259 274.641 879.001V804.332L327.408 857.098C331.817 861.507 337.79 863.783 342.91 862.93L383.445 856.245C388.139 855.534 391.552 852.12 392.263 847.427L398.948 806.892C399.801 801.772 397.526 795.94 393.117 791.389L340.35 738.623H415.02C421.278 738.623 427.109 736.063 430.096 731.796L454.132 698.372C456.977 694.39 456.977 689.696 454.132 685.856H453.706ZM227.848 738.623C202.247 738.623 181.34 717.858 181.34 692.114C181.34 666.371 202.105 645.606 227.848 645.606C253.592 645.606 274.357 666.371 274.357 692.114C274.357 717.858 253.592 738.623 227.848 738.623Z" fill="#D95656"/>
<path id="Vector_7" d="M917.971 685.856L893.935 652.433C890.948 648.308 885.117 645.606 878.859 645.606H804.189L856.956 592.84C861.365 588.43 863.641 582.457 862.787 577.337L856.103 536.802C855.391 532.108 851.978 528.695 847.284 527.984L806.75 521.299C801.629 520.446 795.798 522.721 791.247 527.13L738.48 579.897V505.37C738.48 499.112 735.92 493.28 731.653 490.293L698.23 466.257C694.248 463.412 689.554 463.412 685.714 466.257L652.291 490.293C648.166 493.28 645.464 499.112 645.464 505.37V580.039L592.697 527.273C588.288 522.864 582.315 520.588 577.194 521.441L536.66 528.126C531.966 528.837 528.553 532.251 527.841 536.944L521.157 577.479C520.303 582.599 522.579 588.43 526.988 592.982L579.755 645.748H505.37C499.112 645.748 493.28 648.308 490.293 652.575L466.399 685.856C463.555 689.839 463.555 694.532 466.399 698.372L490.436 731.796C493.422 735.92 499.254 738.623 505.512 738.623H580.181L527.415 791.389C523.006 795.798 520.73 801.772 521.583 806.892L528.268 847.427C528.979 852.12 532.393 855.534 537.086 856.245L577.621 862.93C582.741 863.783 588.573 861.507 593.124 857.098L645.89 804.332V879.001C645.89 885.259 648.45 891.091 652.717 894.077L686.141 918.114C690.123 920.958 694.817 920.958 698.657 918.114L732.08 894.077C736.205 891.091 738.907 885.259 738.907 879.001V804.332L791.673 857.098C796.083 861.507 802.056 863.783 807.176 862.93L847.711 856.245C852.405 855.534 855.818 852.12 856.529 847.427L863.214 806.892C864.067 801.772 861.792 795.94 857.383 791.389L804.616 738.623H879.286C885.544 738.623 891.375 736.063 894.362 731.796L918.398 698.372C921.243 694.39 921.243 689.696 918.398 685.856H917.971ZM692.114 738.623C666.513 738.623 645.606 717.858 645.606 692.114C645.606 666.371 666.371 645.606 692.114 645.606C717.857 645.606 738.623 666.371 738.623 692.114C738.623 717.858 717.857 738.623 692.114 738.623Z" fill="#D95656"/>
<path id="Vector_8" d="M1382.24 685.856L1358.2 652.433C1355.21 648.308 1349.38 645.606 1343.12 645.606H1268.46L1321.22 592.84C1325.63 588.43 1327.91 582.457 1327.05 577.337L1320.37 536.802C1319.66 532.108 1316.24 528.695 1311.55 527.984L1271.02 521.299C1265.9 520.446 1260.06 522.721 1255.51 527.13L1202.75 579.897V505.37C1202.75 499.112 1200.19 493.28 1195.92 490.293L1162.5 466.257C1158.51 463.412 1153.82 463.412 1149.98 466.257L1116.56 490.293C1112.43 493.28 1109.73 499.112 1109.73 505.37V580.039L1056.96 527.273C1052.55 522.864 1046.58 520.588 1041.46 521.441L1000.93 528.126C996.232 528.837 992.818 532.251 992.107 536.944L985.423 577.479C984.569 582.599 986.845 588.43 991.254 592.982L1044.02 645.748H969.635C963.377 645.748 957.546 648.308 954.559 652.575L930.665 685.856C927.82 689.839 927.82 694.532 930.665 698.372L954.701 731.796C957.688 735.92 963.52 738.623 969.778 738.623H1044.45L991.681 791.389C987.272 795.798 984.996 801.772 985.849 806.892L992.534 847.427C993.245 852.12 996.659 855.534 1001.35 856.245L1041.89 862.93C1047.01 863.783 1052.84 861.507 1057.39 857.098L1110.16 804.332V879.001C1110.16 885.259 1112.72 891.091 1116.98 894.077L1150.41 918.114C1154.39 920.958 1159.08 920.958 1162.92 918.114L1196.35 894.077C1200.47 891.091 1203.17 885.259 1203.17 879.001V804.332L1255.94 857.098C1260.35 861.507 1266.32 863.783 1271.44 862.93L1311.98 856.245C1316.67 855.534 1320.08 852.12 1320.8 847.427L1327.48 806.892C1328.33 801.772 1326.06 795.94 1321.65 791.389L1268.88 738.623H1343.55C1349.81 738.623 1355.64 736.063 1358.63 731.796L1382.66 698.372C1385.51 694.39 1385.51 689.696 1382.66 685.856H1382.24ZM1156.38 738.623C1130.78 738.623 1109.87 717.858 1109.87 692.114C1109.87 666.371 1130.64 645.606 1156.38 645.606C1182.12 645.606 1202.89 666.371 1202.89 692.114C1202.89 717.858 1182.12 738.623 1156.38 738.623Z" fill="#D95656"/>
<path id="Vector_9" d="M1846.5 685.856L1822.47 652.433C1819.48 648.308 1813.65 645.606 1807.39 645.606H1732.72L1785.49 592.84C1789.9 588.43 1792.17 582.457 1791.32 577.337L1784.63 536.802C1783.92 532.108 1780.51 528.695 1775.82 527.984L1735.28 521.299C1730.16 520.446 1724.33 522.721 1719.78 527.13L1667.01 579.897V505.37C1667.01 499.112 1664.45 493.28 1660.19 490.293L1626.76 466.257C1622.78 463.412 1618.09 463.412 1614.25 466.257L1580.82 490.293C1576.7 493.28 1574 499.112 1574 505.37V580.039L1521.23 527.273C1516.82 522.864 1510.85 520.588 1505.73 521.441L1465.19 528.126C1460.5 528.837 1457.08 532.251 1456.37 536.944L1449.69 577.479C1448.83 582.599 1451.11 588.43 1455.52 592.982L1508.29 645.748H1433.9C1427.64 645.748 1421.81 648.308 1418.82 652.575L1394.93 685.856C1392.09 689.839 1392.09 694.532 1394.93 698.372L1418.97 731.796C1421.95 735.92 1427.79 738.623 1434.04 738.623H1508.71L1455.95 791.389C1451.54 795.798 1449.26 801.772 1450.12 806.892L1456.8 847.427C1457.51 852.12 1460.92 855.534 1465.62 856.245L1506.15 862.93C1511.27 863.783 1517.1 861.507 1521.66 857.098L1574.42 804.332V879.001C1574.42 885.259 1576.98 891.091 1581.25 894.077L1614.67 918.114C1618.65 920.958 1623.35 920.958 1627.19 918.114L1660.61 894.077C1664.74 891.091 1667.44 885.259 1667.44 879.001V804.332L1720.21 857.098C1724.61 861.507 1730.59 863.783 1735.71 862.93L1776.24 856.245C1780.94 855.534 1784.35 852.12 1785.06 847.427L1791.75 806.892C1792.6 801.772 1790.32 795.94 1785.91 791.389L1733.15 738.623H1807.82C1814.08 738.623 1819.91 736.063 1822.89 731.796L1846.93 698.372C1849.77 694.39 1849.77 689.696 1846.93 685.856H1846.5ZM1620.65 738.623C1595.04 738.623 1574.14 717.858 1574.14 692.114C1574.14 666.371 1594.9 645.606 1620.65 645.606C1646.39 645.606 1667.15 666.371 1667.15 692.114C1667.15 717.858 1646.39 738.623 1620.65 738.623Z" fill="#D95656"/>
<path id="Vector_10" d="M2310.77 685.856L2286.73 652.433C2283.75 648.308 2277.91 645.606 2271.66 645.606H2196.99L2249.75 592.84C2254.16 588.43 2256.44 582.457 2255.58 577.337L2248.9 536.802C2248.19 532.108 2244.78 528.695 2240.08 527.984L2199.55 521.299C2194.43 520.446 2188.6 522.721 2184.04 527.13L2131.28 579.897V505.37C2131.28 499.112 2128.72 493.28 2124.45 490.293L2091.03 466.257C2087.05 463.412 2082.35 463.412 2078.51 466.257L2045.09 490.293C2040.96 493.28 2038.26 499.112 2038.26 505.37V580.039L1985.49 527.273C1981.09 522.864 1975.11 520.588 1969.99 521.441L1929.46 528.126C1924.76 528.837 1921.35 532.251 1920.64 536.944L1913.95 577.479C1913.1 582.599 1915.38 588.43 1919.79 592.982L1972.55 645.748H1898.17C1891.91 645.748 1886.08 648.308 1883.09 652.575L1859.2 685.856C1856.35 689.839 1856.35 694.532 1859.2 698.372L1883.23 731.796C1886.22 735.92 1892.05 738.623 1898.31 738.623H1972.98L1920.21 791.389C1915.8 795.798 1913.53 801.772 1914.38 806.892L1921.07 847.427C1921.78 852.12 1925.19 855.534 1929.88 856.245L1970.42 862.93C1975.54 863.783 1981.37 861.507 1985.92 857.098L2038.69 804.332V879.001C2038.69 885.259 2041.25 891.091 2045.51 894.077L2078.94 918.114C2082.92 920.958 2087.61 920.958 2091.45 918.114L2124.88 894.077C2129 891.091 2131.7 885.259 2131.7 879.001V804.332L2184.47 857.098C2188.88 861.507 2194.85 863.783 2199.97 862.93L2240.51 856.245C2245.2 855.534 2248.62 852.12 2249.33 847.427L2256.01 806.892C2256.86 801.772 2254.59 795.94 2250.18 791.389L2197.41 738.623H2272.08C2278.34 738.623 2284.17 736.063 2287.16 731.796L2311.2 698.372C2314.04 694.39 2314.04 689.696 2311.2 685.856H2310.77ZM2084.91 738.623C2059.31 738.623 2038.4 717.858 2038.4 692.114C2038.4 666.371 2059.17 645.606 2084.91 645.606C2110.65 645.606 2131.42 666.371 2131.42 692.114C2131.42 717.858 2110.65 738.623 2084.91 738.623Z" fill="#D95656"/>
<path id="Vector_11" d="M453.706 1149.98L429.669 1116.56C426.682 1112.43 420.851 1109.73 414.593 1109.73H339.924L392.69 1056.96C397.099 1052.55 399.375 1046.58 398.521 1041.46L391.837 1000.93C391.126 996.232 387.712 992.819 383.019 992.107L342.484 985.423C337.364 984.569 331.532 986.845 326.981 991.254L274.215 1044.02V969.493C274.215 963.235 271.654 957.404 267.388 954.417L233.964 930.381C229.982 927.536 225.288 927.536 221.448 930.381L188.025 954.417C183.9 957.404 181.198 963.235 181.198 969.493V1044.16L128.431 991.396C124.022 986.987 118.049 984.712 112.929 985.565L72.3938 992.25C67.7003 992.961 64.2868 996.374 63.5757 1001.07L56.891 1041.6C56.0376 1046.72 58.3133 1052.55 62.7223 1057.11L115.489 1109.87H41.1037C34.8457 1109.87 29.0144 1112.43 26.0276 1116.7L2.13341 1149.98C-0.711137 1153.96 -0.711137 1158.66 2.13341 1162.5L26.1699 1195.92C29.1566 1200.04 34.988 1202.75 41.246 1202.75H115.915L63.149 1255.51C58.74 1259.92 56.4643 1265.9 57.3177 1271.02L64.0024 1311.55C64.7135 1316.24 68.127 1319.66 72.8205 1320.37L113.355 1327.05C118.475 1327.91 124.307 1325.63 128.858 1321.22L181.625 1268.46V1343.12C181.625 1349.38 184.185 1355.21 188.451 1358.2L221.875 1382.24C225.857 1385.08 230.551 1385.08 234.391 1382.24L267.814 1358.2C271.939 1355.21 274.641 1349.38 274.641 1343.12V1268.46L327.408 1321.22C331.817 1325.63 337.79 1327.91 342.91 1327.05L383.445 1320.37C388.139 1319.66 391.552 1316.24 392.263 1311.55L398.948 1271.02C399.801 1265.9 397.526 1260.06 393.117 1255.51L340.35 1202.75H415.02C421.278 1202.75 427.109 1200.19 430.096 1195.92L454.132 1162.5C456.977 1158.51 456.977 1153.82 454.132 1149.98H453.706ZM227.848 1202.75C202.247 1202.75 181.34 1181.98 181.34 1156.24C181.34 1130.49 202.105 1109.73 227.848 1109.73C253.592 1109.73 274.357 1130.49 274.357 1156.24C274.357 1181.98 253.592 1202.75 227.848 1202.75Z" fill="#D95656"/>
<path id="Vector_12" d="M917.971 1149.98L893.935 1116.56C890.948 1112.43 885.117 1109.73 878.859 1109.73H804.189L856.956 1056.96C861.365 1052.55 863.641 1046.58 862.787 1041.46L856.103 1000.93C855.391 996.232 851.978 992.819 847.284 992.107L806.75 985.423C801.629 984.569 795.798 986.845 791.247 991.254L738.48 1044.02V969.493C738.48 963.235 735.92 957.404 731.653 954.417L698.23 930.381C694.248 927.536 689.554 927.536 685.714 930.381L652.291 954.417C648.166 957.404 645.464 963.235 645.464 969.493V1044.16L592.697 991.396C588.288 986.987 582.315 984.712 577.194 985.565L536.66 992.25C531.966 992.961 528.553 996.374 527.841 1001.07L521.157 1041.6C520.303 1046.72 522.579 1052.55 526.988 1057.11L579.755 1109.87H505.37C499.112 1109.87 493.28 1112.43 490.293 1116.7L466.399 1149.98C463.555 1153.96 463.555 1158.66 466.399 1162.5L490.436 1195.92C493.422 1200.04 499.254 1202.75 505.512 1202.75H580.181L527.415 1255.51C523.006 1259.92 520.73 1265.9 521.583 1271.02L528.268 1311.55C528.979 1316.24 532.393 1319.66 537.086 1320.37L577.621 1327.05C582.741 1327.91 588.573 1325.63 593.124 1321.22L645.89 1268.46V1343.12C645.89 1349.38 648.45 1355.21 652.717 1358.2L686.141 1382.24C690.123 1385.08 694.817 1385.08 698.657 1382.24L732.08 1358.2C736.205 1355.21 738.907 1349.38 738.907 1343.12V1268.46L791.673 1321.22C796.083 1325.63 802.056 1327.91 807.176 1327.05L847.711 1320.37C852.405 1319.66 855.818 1316.24 856.529 1311.55L863.214 1271.02C864.067 1265.9 861.792 1260.06 857.383 1255.51L804.616 1202.75H879.286C885.544 1202.75 891.375 1200.19 894.362 1195.92L918.398 1162.5C921.243 1158.51 921.243 1153.82 918.398 1149.98H917.971ZM692.114 1202.75C666.513 1202.75 645.606 1181.98 645.606 1156.24C645.606 1130.49 666.371 1109.73 692.114 1109.73C717.857 1109.73 738.623 1130.49 738.623 1156.24C738.623 1181.98 717.857 1202.75 692.114 1202.75Z" fill="#D95656"/>
<path id="Vector_13" d="M1382.24 1149.98L1358.2 1116.56C1355.21 1112.43 1349.38 1109.73 1343.12 1109.73H1268.46L1321.22 1056.96C1325.63 1052.55 1327.91 1046.58 1327.05 1041.46L1320.37 1000.93C1319.66 996.232 1316.24 992.819 1311.55 992.107L1271.02 985.423C1265.9 984.569 1260.06 986.845 1255.51 991.254L1202.75 1044.02V969.493C1202.75 963.235 1200.19 957.404 1195.92 954.417L1162.5 930.381C1158.51 927.536 1153.82 927.536 1149.98 930.381L1116.56 954.417C1112.43 957.404 1109.73 963.235 1109.73 969.493V1044.16L1056.96 991.396C1052.55 986.987 1046.58 984.712 1041.46 985.565L1000.93 992.25C996.232 992.961 992.818 996.374 992.107 1001.07L985.423 1041.6C984.569 1046.72 986.845 1052.55 991.254 1057.11L1044.02 1109.87H969.635C963.377 1109.87 957.546 1112.43 954.559 1116.7L930.665 1149.98C927.82 1153.96 927.82 1158.66 930.665 1162.5L954.701 1195.92C957.688 1200.04 963.52 1202.75 969.778 1202.75H1044.45L991.681 1255.51C987.272 1259.92 984.996 1265.9 985.849 1271.02L992.534 1311.55C993.245 1316.24 996.659 1319.66 1001.35 1320.37L1041.89 1327.05C1047.01 1327.91 1052.84 1325.63 1057.39 1321.22L1110.16 1268.46V1343.12C1110.16 1349.38 1112.72 1355.21 1116.98 1358.2L1150.41 1382.24C1154.39 1385.08 1159.08 1385.08 1162.92 1382.24L1196.35 1358.2C1200.47 1355.21 1203.17 1349.38 1203.17 1343.12V1268.46L1255.94 1321.22C1260.35 1325.63 1266.32 1327.91 1271.44 1327.05L1311.98 1320.37C1316.67 1319.66 1320.08 1316.24 1320.8 1311.55L1327.48 1271.02C1328.33 1265.9 1326.06 1260.06 1321.65 1255.51L1268.88 1202.75H1343.55C1349.81 1202.75 1355.64 1200.19 1358.63 1195.92L1382.66 1162.5C1385.51 1158.51 1385.51 1153.82 1382.66 1149.98H1382.24ZM1156.38 1202.75C1130.78 1202.75 1109.87 1181.98 1109.87 1156.24C1109.87 1130.49 1130.64 1109.73 1156.38 1109.73C1182.12 1109.73 1202.89 1130.49 1202.89 1156.24C1202.89 1181.98 1182.12 1202.75 1156.38 1202.75Z" fill="#D95656"/>
<path id="Vector_14" d="M1846.5 1149.98L1822.47 1116.56C1819.48 1112.43 1813.65 1109.73 1807.39 1109.73H1732.72L1785.49 1056.96C1789.9 1052.55 1792.17 1046.58 1791.32 1041.46L1784.63 1000.93C1783.92 996.232 1780.51 992.819 1775.82 992.107L1735.28 985.423C1730.16 984.569 1724.33 986.845 1719.78 991.254L1667.01 1044.02V969.493C1667.01 963.235 1664.45 957.404 1660.19 954.417L1626.76 930.381C1622.78 927.536 1618.09 927.536 1614.25 930.381L1580.82 954.417C1576.7 957.404 1574 963.235 1574 969.493V1044.16L1521.23 991.396C1516.82 986.987 1510.85 984.712 1505.73 985.565L1465.19 992.25C1460.5 992.961 1457.08 996.374 1456.37 1001.07L1449.69 1041.6C1448.83 1046.72 1451.11 1052.55 1455.52 1057.11L1508.29 1109.87H1433.9C1427.64 1109.87 1421.81 1112.43 1418.82 1116.7L1394.93 1149.98C1392.09 1153.96 1392.09 1158.66 1394.93 1162.5L1418.97 1195.92C1421.95 1200.04 1427.79 1202.75 1434.04 1202.75H1508.71L1455.95 1255.51C1451.54 1259.92 1449.26 1265.9 1450.12 1271.02L1456.8 1311.55C1457.51 1316.24 1460.92 1319.66 1465.62 1320.37L1506.15 1327.05C1511.27 1327.91 1517.1 1325.63 1521.66 1321.22L1574.42 1268.46V1343.12C1574.42 1349.38 1576.98 1355.21 1581.25 1358.2L1614.67 1382.24C1618.65 1385.08 1623.35 1385.08 1627.19 1382.24L1660.61 1358.2C1664.74 1355.21 1667.44 1349.38 1667.44 1343.12V1268.46L1720.21 1321.22C1724.61 1325.63 1730.59 1327.91 1735.71 1327.05L1776.24 1320.37C1780.94 1319.66 1784.35 1316.24 1785.06 1311.55L1791.75 1271.02C1792.6 1265.9 1790.32 1260.06 1785.91 1255.51L1733.15 1202.75H1807.82C1814.08 1202.75 1819.91 1200.19 1822.89 1195.92L1846.93 1162.5C1849.77 1158.51 1849.77 1153.82 1846.93 1149.98H1846.5ZM1620.65 1202.75C1595.04 1202.75 1574.14 1181.98 1574.14 1156.24C1574.14 1130.49 1594.9 1109.73 1620.65 1109.73C1646.39 1109.73 1667.15 1130.49 1667.15 1156.24C1667.15 1181.98 1646.39 1202.75 1620.65 1202.75Z" fill="#D95656"/>
<path id="Vector_15" d="M2310.77 1149.98L2286.73 1116.56C2283.75 1112.43 2277.91 1109.73 2271.66 1109.73H2196.99L2249.75 1056.96C2254.16 1052.55 2256.44 1046.58 2255.58 1041.46L2248.9 1000.93C2248.19 996.232 2244.78 992.819 2240.08 992.107L2199.55 985.423C2194.43 984.569 2188.6 986.845 2184.04 991.254L2131.28 1044.02V969.493C2131.28 963.235 2128.72 957.404 2124.45 954.417L2091.03 930.381C2087.05 927.536 2082.35 927.536 2078.51 930.381L2045.09 954.417C2040.96 957.404 2038.26 963.235 2038.26 969.493V1044.16L1985.49 991.396C1981.09 986.987 1975.11 984.712 1969.99 985.565L1929.46 992.25C1924.76 992.961 1921.35 996.374 1920.64 1001.07L1913.95 1041.6C1913.1 1046.72 1915.38 1052.55 1919.79 1057.11L1972.55 1109.87H1898.17C1891.91 1109.87 1886.08 1112.43 1883.09 1116.7L1859.2 1149.98C1856.35 1153.96 1856.35 1158.66 1859.2 1162.5L1883.23 1195.92C1886.22 1200.04 1892.05 1202.75 1898.31 1202.75H1972.98L1920.21 1255.51C1915.8 1259.92 1913.53 1265.9 1914.38 1271.02L1921.07 1311.55C1921.78 1316.24 1925.19 1319.66 1929.88 1320.37L1970.42 1327.05C1975.54 1327.91 1981.37 1325.63 1985.92 1321.22L2038.69 1268.46V1343.12C2038.69 1349.38 2041.25 1355.21 2045.51 1358.2L2078.94 1382.24C2082.92 1385.08 2087.61 1385.08 2091.45 1382.24L2124.88 1358.2C2129 1355.21 2131.7 1349.38 2131.7 1343.12V1268.46L2184.47 1321.22C2188.88 1325.63 2194.85 1327.91 2199.97 1327.05L2240.51 1320.37C2245.2 1319.66 2248.62 1316.24 2249.33 1311.55L2256.01 1271.02C2256.86 1265.9 2254.59 1260.06 2250.18 1255.51L2197.41 1202.75H2272.08C2278.34 1202.75 2284.17 1200.19 2287.16 1195.92L2311.2 1162.5C2314.04 1158.51 2314.04 1153.82 2311.2 1149.98H2310.77ZM2084.91 1202.75C2059.31 1202.75 2038.4 1181.98 2038.4 1156.24C2038.4 1130.49 2059.17 1109.73 2084.91 1109.73C2110.65 1109.73 2131.42 1130.49 2131.42 1156.24C2131.42 1181.98 2110.65 1202.75 2084.91 1202.75Z" fill="#D95656"/>
<path id="Vector_16" d="M453.706 1614.1L429.669 1580.68C426.682 1576.56 420.851 1573.85 414.593 1573.85H339.924L392.69 1521.09C397.099 1516.68 399.375 1510.7 398.521 1505.58L391.837 1465.05C391.126 1460.36 387.712 1456.94 383.019 1456.23L342.484 1449.55C337.364 1448.69 331.532 1450.97 326.981 1455.38L274.215 1508.14V1433.62C274.215 1427.36 271.654 1421.53 267.388 1418.54L233.964 1394.5C229.982 1391.66 225.288 1391.66 221.448 1394.5L188.025 1418.54C183.9 1421.53 181.198 1427.36 181.198 1433.62V1508.29L128.431 1455.52C124.022 1451.11 118.049 1448.84 112.929 1449.69L72.3938 1456.37C67.7003 1457.08 64.2868 1460.5 63.5757 1465.19L56.891 1505.73C56.0376 1510.85 58.3133 1516.68 62.7223 1521.23L115.489 1574H41.1037C34.8457 1574 29.0144 1576.56 26.0276 1580.82L2.13341 1614.1C-0.711137 1618.09 -0.711137 1622.78 2.13341 1626.62L26.1699 1660.04C29.1566 1664.17 34.988 1666.87 41.246 1666.87H115.915L63.149 1719.64C58.74 1724.05 56.4643 1730.02 57.3177 1735.14L64.0024 1775.67C64.7135 1780.37 68.127 1783.78 72.8205 1784.49L113.355 1791.18C118.475 1792.03 124.307 1789.75 128.858 1785.35L181.625 1732.58V1807.25C181.625 1813.51 184.185 1819.34 188.451 1822.32L221.875 1846.36C225.857 1849.21 230.551 1849.21 234.391 1846.36L267.814 1822.32C271.939 1819.34 274.641 1813.51 274.641 1807.25V1732.58L327.408 1785.35C331.817 1789.75 337.79 1792.03 342.91 1791.18L383.445 1784.49C388.139 1783.78 391.552 1780.37 392.263 1775.67L398.948 1735.14C399.801 1730.02 397.526 1724.19 393.117 1719.64L340.35 1666.87H415.02C421.278 1666.87 427.109 1664.31 430.096 1660.04L454.132 1626.62C456.977 1622.64 456.977 1617.94 454.132 1614.1H453.706ZM227.848 1666.87C202.247 1666.87 181.34 1646.1 181.34 1620.36C181.34 1594.62 202.105 1573.85 227.848 1573.85C253.592 1573.85 274.357 1594.62 274.357 1620.36C274.357 1646.1 253.592 1666.87 227.848 1666.87Z" fill="#D95656"/>
<path id="Vector_17" d="M917.971 1614.1L893.935 1580.68C890.948 1576.56 885.117 1573.85 878.859 1573.85H804.189L856.956 1521.09C861.365 1516.68 863.641 1510.7 862.787 1505.58L856.103 1465.05C855.391 1460.36 851.978 1456.94 847.284 1456.23L806.75 1449.55C801.629 1448.69 795.798 1450.97 791.247 1455.38L738.48 1508.14V1433.62C738.48 1427.36 735.92 1421.53 731.653 1418.54L698.23 1394.5C694.248 1391.66 689.554 1391.66 685.714 1394.5L652.291 1418.54C648.166 1421.53 645.464 1427.36 645.464 1433.62V1508.29L592.697 1455.52C588.288 1451.11 582.315 1448.84 577.194 1449.69L536.66 1456.37C531.966 1457.08 528.553 1460.5 527.841 1465.19L521.157 1505.73C520.303 1510.85 522.579 1516.68 526.988 1521.23L579.755 1574H505.37C499.112 1574 493.28 1576.56 490.293 1580.82L466.399 1614.1C463.555 1618.09 463.555 1622.78 466.399 1626.62L490.436 1660.04C493.422 1664.17 499.254 1666.87 505.512 1666.87H580.181L527.415 1719.64C523.006 1724.05 520.73 1730.02 521.583 1735.14L528.268 1775.67C528.979 1780.37 532.393 1783.78 537.086 1784.49L577.621 1791.18C582.741 1792.03 588.573 1789.75 593.124 1785.35L645.89 1732.58V1807.25C645.89 1813.51 648.45 1819.34 652.717 1822.32L686.141 1846.36C690.123 1849.21 694.817 1849.21 698.657 1846.36L732.08 1822.32C736.205 1819.34 738.907 1813.51 738.907 1807.25V1732.58L791.673 1785.35C796.083 1789.75 802.056 1792.03 807.176 1791.18L847.711 1784.49C852.405 1783.78 855.818 1780.37 856.529 1775.67L863.214 1735.14C864.067 1730.02 861.792 1724.19 857.383 1719.64L804.616 1666.87H879.286C885.544 1666.87 891.375 1664.31 894.362 1660.04L918.398 1626.62C921.243 1622.64 921.243 1617.94 918.398 1614.1H917.971ZM692.114 1666.87C666.513 1666.87 645.606 1646.1 645.606 1620.36C645.606 1594.62 666.371 1573.85 692.114 1573.85C717.857 1573.85 738.623 1594.62 738.623 1620.36C738.623 1646.1 717.857 1666.87 692.114 1666.87Z" fill="#D95656"/>
<path id="Vector_18" d="M1382.24 1614.1L1358.2 1580.68C1355.21 1576.56 1349.38 1573.85 1343.12 1573.85H1268.46L1321.22 1521.09C1325.63 1516.68 1327.91 1510.7 1327.05 1505.58L1320.37 1465.05C1319.66 1460.36 1316.24 1456.94 1311.55 1456.23L1271.02 1449.55C1265.9 1448.69 1260.06 1450.97 1255.51 1455.38L1202.75 1508.14V1433.62C1202.75 1427.36 1200.19 1421.53 1195.92 1418.54L1162.5 1394.5C1158.51 1391.66 1153.82 1391.66 1149.98 1394.5L1116.56 1418.54C1112.43 1421.53 1109.73 1427.36 1109.73 1433.62V1508.29L1056.96 1455.52C1052.55 1451.11 1046.58 1448.84 1041.46 1449.69L1000.93 1456.37C996.232 1457.08 992.818 1460.5 992.107 1465.19L985.423 1505.73C984.569 1510.85 986.845 1516.68 991.254 1521.23L1044.02 1574H969.635C963.377 1574 957.546 1576.56 954.559 1580.82L930.665 1614.1C927.82 1618.09 927.82 1622.78 930.665 1626.62L954.701 1660.04C957.688 1664.17 963.52 1666.87 969.778 1666.87H1044.45L991.681 1719.64C987.272 1724.05 984.996 1730.02 985.849 1735.14L992.534 1775.67C993.245 1780.37 996.659 1783.78 1001.35 1784.49L1041.89 1791.18C1047.01 1792.03 1052.84 1789.75 1057.39 1785.35L1110.16 1732.58V1807.25C1110.16 1813.51 1112.72 1819.34 1116.98 1822.32L1150.41 1846.36C1154.39 1849.21 1159.08 1849.21 1162.92 1846.36L1196.35 1822.32C1200.47 1819.34 1203.17 1813.51 1203.17 1807.25V1732.58L1255.94 1785.35C1260.35 1789.75 1266.32 1792.03 1271.44 1791.18L1311.98 1784.49C1316.67 1783.78 1320.08 1780.37 1320.8 1775.67L1327.48 1735.14C1328.33 1730.02 1326.06 1724.19 1321.65 1719.64L1268.88 1666.87H1343.55C1349.81 1666.87 1355.64 1664.31 1358.63 1660.04L1382.66 1626.62C1385.51 1622.64 1385.51 1617.94 1382.66 1614.1H1382.24ZM1156.38 1666.87C1130.78 1666.87 1109.87 1646.1 1109.87 1620.36C1109.87 1594.62 1130.64 1573.85 1156.38 1573.85C1182.12 1573.85 1202.89 1594.62 1202.89 1620.36C1202.89 1646.1 1182.12 1666.87 1156.38 1666.87Z" fill="#D95656"/>
<path id="Vector_19" d="M1846.5 1614.1L1822.47 1580.68C1819.48 1576.56 1813.65 1573.85 1807.39 1573.85H1732.72L1785.49 1521.09C1789.9 1516.68 1792.17 1510.7 1791.32 1505.58L1784.63 1465.05C1783.92 1460.36 1780.51 1456.94 1775.82 1456.23L1735.28 1449.55C1730.16 1448.69 1724.33 1450.97 1719.78 1455.38L1667.01 1508.14V1433.62C1667.01 1427.36 1664.45 1421.53 1660.19 1418.54L1626.76 1394.5C1622.78 1391.66 1618.09 1391.66 1614.25 1394.5L1580.82 1418.54C1576.7 1421.53 1574 1427.36 1574 1433.62V1508.29L1521.23 1455.52C1516.82 1451.11 1510.85 1448.84 1505.73 1449.69L1465.19 1456.37C1460.5 1457.08 1457.08 1460.5 1456.37 1465.19L1449.69 1505.73C1448.83 1510.85 1451.11 1516.68 1455.52 1521.23L1508.29 1574H1433.9C1427.64 1574 1421.81 1576.56 1418.82 1580.82L1394.93 1614.1C1392.09 1618.09 1392.09 1622.78 1394.93 1626.62L1418.97 1660.04C1421.95 1664.17 1427.79 1666.87 1434.04 1666.87H1508.71L1455.95 1719.64C1451.54 1724.05 1449.26 1730.02 1450.12 1735.14L1456.8 1775.67C1457.51 1780.37 1460.92 1783.78 1465.62 1784.49L1506.15 1791.18C1511.27 1792.03 1517.1 1789.75 1521.66 1785.35L1574.42 1732.58V1807.25C1574.42 1813.51 1576.98 1819.34 1581.25 1822.32L1614.67 1846.36C1618.65 1849.21 1623.35 1849.21 1627.19 1846.36L1660.61 1822.32C1664.74 1819.34 1667.44 1813.51 1667.44 1807.25V1732.58L1720.21 1785.35C1724.61 1789.75 1730.59 1792.03 1735.71 1791.18L1776.24 1784.49C1780.94 1783.78 1784.35 1780.37 1785.06 1775.67L1791.75 1735.14C1792.6 1730.02 1790.32 1724.19 1785.91 1719.64L1733.15 1666.87H1807.82C1814.08 1666.87 1819.91 1664.31 1822.89 1660.04L1846.93 1626.62C1849.77 1622.64 1849.77 1617.94 1846.93 1614.1H1846.5ZM1620.65 1666.87C1595.04 1666.87 1574.14 1646.1 1574.14 1620.36C1574.14 1594.62 1594.9 1573.85 1620.65 1573.85C1646.39 1573.85 1667.15 1594.62 1667.15 1620.36C1667.15 1646.1 1646.39 1666.87 1620.65 1666.87Z" fill="#D95656"/>
<path id="Vector_20" d="M2310.77 1614.1L2286.73 1580.68C2283.75 1576.56 2277.91 1573.85 2271.66 1573.85H2196.99L2249.75 1521.09C2254.16 1516.68 2256.44 1510.7 2255.58 1505.58L2248.9 1465.05C2248.19 1460.36 2244.78 1456.94 2240.08 1456.23L2199.55 1449.55C2194.43 1448.69 2188.6 1450.97 2184.04 1455.38L2131.28 1508.14V1433.62C2131.28 1427.36 2128.72 1421.53 2124.45 1418.54L2091.03 1394.5C2087.05 1391.66 2082.35 1391.66 2078.51 1394.5L2045.09 1418.54C2040.96 1421.53 2038.26 1427.36 2038.26 1433.62V1508.29L1985.49 1455.52C1981.09 1451.11 1975.11 1448.84 1969.99 1449.69L1929.46 1456.37C1924.76 1457.08 1921.35 1460.5 1920.64 1465.19L1913.95 1505.73C1913.1 1510.85 1915.38 1516.68 1919.79 1521.23L1972.55 1574H1898.17C1891.91 1574 1886.08 1576.56 1883.09 1580.82L1859.2 1614.1C1856.35 1618.09 1856.35 1622.78 1859.2 1626.62L1883.23 1660.04C1886.22 1664.17 1892.05 1666.87 1898.31 1666.87H1972.98L1920.21 1719.64C1915.8 1724.05 1913.53 1730.02 1914.38 1735.14L1921.07 1775.67C1921.78 1780.37 1925.19 1783.78 1929.88 1784.49L1970.42 1791.18C1975.54 1792.03 1981.37 1789.75 1985.92 1785.35L2038.69 1732.58V1807.25C2038.69 1813.51 2041.25 1819.34 2045.51 1822.32L2078.94 1846.36C2082.92 1849.21 2087.61 1849.21 2091.45 1846.36L2124.88 1822.32C2129 1819.34 2131.7 1813.51 2131.7 1807.25V1732.58L2184.47 1785.35C2188.88 1789.75 2194.85 1792.03 2199.97 1791.18L2240.51 1784.49C2245.2 1783.78 2248.62 1780.37 2249.33 1775.67L2256.01 1735.14C2256.86 1730.02 2254.59 1724.19 2250.18 1719.64L2197.41 1666.87H2272.08C2278.34 1666.87 2284.17 1664.31 2287.16 1660.04L2311.2 1626.62C2314.04 1622.64 2314.04 1617.94 2311.2 1614.1H2310.77ZM2084.91 1666.87C2059.31 1666.87 2038.4 1646.1 2038.4 1620.36C2038.4 1594.62 2059.17 1573.85 2084.91 1573.85C2110.65 1573.85 2131.42 1594.62 2131.42 1620.36C2131.42 1646.1 2110.65 1666.87 2084.91 1666.87Z" fill="#D95656"/>
<path id="Vector_21" d="M453.706 2078.23L429.669 2044.8C426.682 2040.68 420.851 2037.98 414.593 2037.98H339.924L392.69 1985.21C397.099 1980.8 399.375 1974.83 398.521 1969.71L391.837 1929.17C391.126 1924.48 387.712 1921.07 383.019 1920.35L342.484 1913.67C337.364 1912.82 331.532 1915.09 326.981 1919.5L274.215 1972.27V1897.74C274.215 1891.48 271.654 1885.65 267.388 1882.66L233.964 1858.63C229.982 1855.78 225.288 1855.78 221.448 1858.63L188.025 1882.66C183.9 1885.65 181.198 1891.48 181.198 1897.74V1972.41L128.431 1919.64C124.022 1915.23 118.049 1912.96 112.929 1913.81L72.3938 1920.5C67.7003 1921.21 64.2868 1924.62 63.5757 1929.32L56.891 1969.85C56.0376 1974.97 58.3133 1980.8 62.7223 1985.35L115.489 2038.12H41.1037C34.8457 2038.12 29.0144 2040.68 26.0276 2044.95L2.13341 2078.23C-0.711137 2082.21 -0.711137 2086.9 2.13341 2090.74L26.1699 2124.17C29.1566 2128.29 34.988 2130.99 41.246 2130.99H115.915L63.149 2183.76C58.74 2188.17 56.4643 2194.14 57.3177 2199.26L64.0024 2239.8C64.7135 2244.49 68.127 2247.9 72.8205 2248.62L113.355 2255.3C118.475 2256.15 124.307 2253.88 128.858 2249.47L181.625 2196.7V2271.37C181.625 2277.63 184.185 2283.46 188.451 2286.45L221.875 2310.48C225.857 2313.33 230.551 2313.33 234.391 2310.48L267.814 2286.45C271.939 2283.46 274.641 2277.63 274.641 2271.37V2196.7L327.408 2249.47C331.817 2253.88 337.79 2256.15 342.91 2255.3L383.445 2248.62C388.139 2247.9 391.552 2244.49 392.263 2239.8L398.948 2199.26C399.801 2194.14 397.526 2188.31 393.117 2183.76L340.35 2130.99H415.02C421.278 2130.99 427.109 2128.43 430.096 2124.17L454.132 2090.74C456.977 2086.76 456.977 2082.07 454.132 2078.23H453.706ZM227.848 2130.99C202.247 2130.99 181.34 2110.23 181.34 2084.49C181.34 2058.74 202.105 2037.98 227.848 2037.98C253.592 2037.98 274.357 2058.74 274.357 2084.49C274.357 2110.23 253.592 2130.99 227.848 2130.99Z" fill="#D95656"/>
<path id="Vector_22" d="M917.971 2078.23L893.935 2044.8C890.948 2040.68 885.117 2037.98 878.859 2037.98H804.189L856.956 1985.21C861.365 1980.8 863.641 1974.83 862.787 1969.71L856.103 1929.17C855.391 1924.48 851.978 1921.07 847.284 1920.35L806.75 1913.67C801.629 1912.82 795.798 1915.09 791.247 1919.5L738.48 1972.27V1897.74C738.48 1891.48 735.92 1885.65 731.653 1882.66L698.23 1858.63C694.248 1855.78 689.554 1855.78 685.714 1858.63L652.291 1882.66C648.166 1885.65 645.464 1891.48 645.464 1897.74V1972.41L592.697 1919.64C588.288 1915.23 582.315 1912.96 577.194 1913.81L536.66 1920.5C531.966 1921.21 528.553 1924.62 527.841 1929.32L521.157 1969.85C520.303 1974.97 522.579 1980.8 526.988 1985.35L579.755 2038.12H505.37C499.112 2038.12 493.28 2040.68 490.293 2044.95L466.399 2078.23C463.555 2082.21 463.555 2086.9 466.399 2090.74L490.436 2124.17C493.422 2128.29 499.254 2130.99 505.512 2130.99H580.181L527.415 2183.76C523.006 2188.17 520.73 2194.14 521.583 2199.26L528.268 2239.8C528.979 2244.49 532.393 2247.9 537.086 2248.62L577.621 2255.3C582.741 2256.15 588.573 2253.88 593.124 2249.47L645.89 2196.7V2271.37C645.89 2277.63 648.45 2283.46 652.717 2286.45L686.141 2310.48C690.123 2313.33 694.817 2313.33 698.657 2310.48L732.08 2286.45C736.205 2283.46 738.907 2277.63 738.907 2271.37V2196.7L791.673 2249.47C796.083 2253.88 802.056 2256.15 807.176 2255.3L847.711 2248.62C852.405 2247.9 855.818 2244.49 856.529 2239.8L863.214 2199.26C864.067 2194.14 861.792 2188.31 857.383 2183.76L804.616 2130.99H879.286C885.544 2130.99 891.375 2128.43 894.362 2124.17L918.398 2090.74C921.243 2086.76 921.243 2082.07 918.398 2078.23H917.971ZM692.114 2130.99C666.513 2130.99 645.606 2110.23 645.606 2084.49C645.606 2058.74 666.371 2037.98 692.114 2037.98C717.857 2037.98 738.623 2058.74 738.623 2084.49C738.623 2110.23 717.857 2130.99 692.114 2130.99Z" fill="#D95656"/>
<path id="Vector_23" d="M1382.24 2078.23L1358.2 2044.8C1355.21 2040.68 1349.38 2037.98 1343.12 2037.98H1268.46L1321.22 1985.21C1325.63 1980.8 1327.91 1974.83 1327.05 1969.71L1320.37 1929.17C1319.66 1924.48 1316.24 1921.07 1311.55 1920.35L1271.02 1913.67C1265.9 1912.82 1260.06 1915.09 1255.51 1919.5L1202.75 1972.27V1897.74C1202.75 1891.48 1200.19 1885.65 1195.92 1882.66L1162.5 1858.63C1158.51 1855.78 1153.82 1855.78 1149.98 1858.63L1116.56 1882.66C1112.43 1885.65 1109.73 1891.48 1109.73 1897.74V1972.41L1056.96 1919.64C1052.55 1915.23 1046.58 1912.96 1041.46 1913.81L1000.93 1920.5C996.232 1921.21 992.818 1924.62 992.107 1929.32L985.423 1969.85C984.569 1974.97 986.845 1980.8 991.254 1985.35L1044.02 2038.12H969.635C963.377 2038.12 957.546 2040.68 954.559 2044.95L930.665 2078.23C927.82 2082.21 927.82 2086.9 930.665 2090.74L954.701 2124.17C957.688 2128.29 963.52 2130.99 969.778 2130.99H1044.45L991.681 2183.76C987.272 2188.17 984.996 2194.14 985.849 2199.26L992.534 2239.8C993.245 2244.49 996.659 2247.9 1001.35 2248.62L1041.89 2255.3C1047.01 2256.15 1052.84 2253.88 1057.39 2249.47L1110.16 2196.7V2271.37C1110.16 2277.63 1112.72 2283.46 1116.98 2286.45L1150.41 2310.48C1154.39 2313.33 1159.08 2313.33 1162.92 2310.48L1196.35 2286.45C1200.47 2283.46 1203.17 2277.63 1203.17 2271.37V2196.7L1255.94 2249.47C1260.35 2253.88 1266.32 2256.15 1271.44 2255.3L1311.98 2248.62C1316.67 2247.9 1320.08 2244.49 1320.8 2239.8L1327.48 2199.26C1328.33 2194.14 1326.06 2188.31 1321.65 2183.76L1268.88 2130.99H1343.55C1349.81 2130.99 1355.64 2128.43 1358.63 2124.17L1382.66 2090.74C1385.51 2086.76 1385.51 2082.07 1382.66 2078.23H1382.24ZM1156.38 2130.99C1130.78 2130.99 1109.87 2110.23 1109.87 2084.49C1109.87 2058.74 1130.64 2037.98 1156.38 2037.98C1182.12 2037.98 1202.89 2058.74 1202.89 2084.49C1202.89 2110.23 1182.12 2130.99 1156.38 2130.99Z" fill="#D95656"/>
<path id="Vector_24" d="M1846.5 2078.23L1822.47 2044.8C1819.48 2040.68 1813.65 2037.98 1807.39 2037.98H1732.72L1785.49 1985.21C1789.9 1980.8 1792.17 1974.83 1791.32 1969.71L1784.63 1929.17C1783.92 1924.48 1780.51 1921.07 1775.82 1920.35L1735.28 1913.67C1730.16 1912.82 1724.33 1915.09 1719.78 1919.5L1667.01 1972.27V1897.74C1667.01 1891.48 1664.45 1885.65 1660.19 1882.66L1626.76 1858.63C1622.78 1855.78 1618.09 1855.78 1614.25 1858.63L1580.82 1882.66C1576.7 1885.65 1574 1891.48 1574 1897.74V1972.41L1521.23 1919.64C1516.82 1915.23 1510.85 1912.96 1505.73 1913.81L1465.19 1920.5C1460.5 1921.21 1457.08 1924.62 1456.37 1929.32L1449.69 1969.85C1448.83 1974.97 1451.11 1980.8 1455.52 1985.35L1508.29 2038.12H1433.9C1427.64 2038.12 1421.81 2040.68 1418.82 2044.95L1394.93 2078.23C1392.09 2082.21 1392.09 2086.9 1394.93 2090.74L1418.97 2124.17C1421.95 2128.29 1427.79 2130.99 1434.04 2130.99H1508.71L1455.95 2183.76C1451.54 2188.17 1449.26 2194.14 1450.12 2199.26L1456.8 2239.8C1457.51 2244.49 1460.92 2247.9 1465.62 2248.62L1506.15 2255.3C1511.27 2256.15 1517.1 2253.88 1521.66 2249.47L1574.42 2196.7V2271.37C1574.42 2277.63 1576.98 2283.46 1581.25 2286.45L1614.67 2310.48C1618.65 2313.33 1623.35 2313.33 1627.19 2310.48L1660.61 2286.45C1664.74 2283.46 1667.44 2277.63 1667.44 2271.37V2196.7L1720.21 2249.47C1724.61 2253.88 1730.59 2256.15 1735.71 2255.3L1776.24 2248.62C1780.94 2247.9 1784.35 2244.49 1785.06 2239.8L1791.75 2199.26C1792.6 2194.14 1790.32 2188.31 1785.91 2183.76L1733.15 2130.99H1807.82C1814.08 2130.99 1819.91 2128.43 1822.89 2124.17L1846.93 2090.74C1849.77 2086.76 1849.77 2082.07 1846.93 2078.23H1846.5ZM1620.65 2130.99C1595.04 2130.99 1574.14 2110.23 1574.14 2084.49C1574.14 2058.74 1594.9 2037.98 1620.65 2037.98C1646.39 2037.98 1667.15 2058.74 1667.15 2084.49C1667.15 2110.23 1646.39 2130.99 1620.65 2130.99Z" fill="#D95656"/>
<path id="Vector_25" d="M2310.77 2078.23L2286.73 2044.8C2283.75 2040.68 2277.91 2037.98 2271.66 2037.98H2196.99L2249.75 1985.21C2254.16 1980.8 2256.44 1974.83 2255.58 1969.71L2248.9 1929.17C2248.19 1924.48 2244.78 1921.07 2240.08 1920.35L2199.55 1913.67C2194.43 1912.82 2188.6 1915.09 2184.04 1919.5L2131.28 1972.27V1897.74C2131.28 1891.48 2128.72 1885.65 2124.45 1882.66L2091.03 1858.63C2087.05 1855.78 2082.35 1855.78 2078.51 1858.63L2045.09 1882.66C2040.96 1885.65 2038.26 1891.48 2038.26 1897.74V1972.41L1985.49 1919.64C1981.09 1915.23 1975.11 1912.96 1969.99 1913.81L1929.46 1920.5C1924.76 1921.21 1921.35 1924.62 1920.64 1929.32L1913.95 1969.85C1913.1 1974.97 1915.38 1980.8 1919.79 1985.35L1972.55 2038.12H1898.17C1891.91 2038.12 1886.08 2040.68 1883.09 2044.95L1859.2 2078.23C1856.35 2082.21 1856.35 2086.9 1859.2 2090.74L1883.23 2124.17C1886.22 2128.29 1892.05 2130.99 1898.31 2130.99H1972.98L1920.21 2183.76C1915.8 2188.17 1913.53 2194.14 1914.38 2199.26L1921.07 2239.8C1921.78 2244.49 1925.19 2247.9 1929.88 2248.62L1970.42 2255.3C1975.54 2256.15 1981.37 2253.88 1985.92 2249.47L2038.69 2196.7V2271.37C2038.69 2277.63 2041.25 2283.46 2045.51 2286.45L2078.94 2310.48C2082.92 2313.33 2087.61 2313.33 2091.45 2310.48L2124.88 2286.45C2129 2283.46 2131.7 2277.63 2131.7 2271.37V2196.7L2184.47 2249.47C2188.88 2253.88 2194.85 2256.15 2199.97 2255.3L2240.51 2248.62C2245.2 2247.9 2248.62 2244.49 2249.33 2239.8L2256.01 2199.26C2256.86 2194.14 2254.59 2188.31 2250.18 2183.76L2197.41 2130.99H2272.08C2278.34 2130.99 2284.17 2128.43 2287.16 2124.17L2311.2 2090.74C2314.04 2086.76 2314.04 2082.07 2311.2 2078.23H2310.77ZM2084.91 2130.99C2059.31 2130.99 2038.4 2110.23 2038.4 2084.49C2038.4 2058.74 2059.17 2037.98 2084.91 2037.98C2110.65 2037.98 2131.42 2058.74 2131.42 2084.49C2131.42 2110.23 2110.65 2130.99 2084.91 2130.99Z" fill="#D95656"/>
<path id="Vector_26" d="M453.706 2542.35L429.669 2508.93C426.682 2504.8 420.851 2502.1 414.593 2502.1H339.924L392.69 2449.33C397.099 2444.93 399.375 2438.95 398.521 2433.83L391.837 2393.3C391.126 2388.6 387.712 2385.19 383.019 2384.48L342.484 2377.79C337.364 2376.94 331.532 2379.22 326.981 2383.62L274.215 2436.39V2361.86C274.215 2355.61 271.654 2349.77 267.388 2346.79L233.964 2322.75C229.982 2319.91 225.288 2319.91 221.448 2322.75L188.025 2346.79C183.9 2349.77 181.198 2355.61 181.198 2361.86V2436.53L128.431 2383.77C124.022 2379.36 118.049 2377.08 112.929 2377.94L72.3938 2384.62C67.7003 2385.33 64.2868 2388.75 63.5757 2393.44L56.891 2433.97C56.0376 2439.09 58.3133 2444.93 62.7223 2449.48L115.489 2502.24H41.1037C34.8457 2502.24 29.0144 2504.8 26.0276 2509.07L2.13341 2542.35C-0.711137 2546.33 -0.711137 2551.03 2.13341 2554.87L26.1699 2588.29C29.1566 2592.41 34.988 2595.12 41.246 2595.12H115.915L63.149 2647.88C58.74 2652.29 56.4643 2658.27 57.3177 2663.39L64.0024 2703.92C64.7135 2708.61 68.127 2712.03 72.8205 2712.74L113.355 2719.42C118.475 2720.28 124.307 2718 128.858 2713.59L181.625 2660.83V2735.5C181.625 2741.75 184.185 2747.59 188.451 2750.57L221.875 2774.61C225.857 2777.45 230.551 2777.45 234.391 2774.61L267.814 2750.57C271.939 2747.59 274.641 2741.75 274.641 2735.5V2660.83L327.408 2713.59C331.817 2718 337.79 2720.28 342.91 2719.42L383.445 2712.74C388.139 2712.03 391.552 2708.61 392.263 2703.92L398.948 2663.39C399.801 2658.27 397.526 2652.43 393.117 2647.88L340.35 2595.12H415.02C421.278 2595.12 427.109 2592.56 430.096 2588.29L454.132 2554.87C456.977 2550.88 456.977 2546.19 454.132 2542.35H453.706ZM227.848 2595.12C202.247 2595.12 181.34 2574.35 181.34 2548.61C181.34 2522.87 202.105 2502.1 227.848 2502.1C253.592 2502.1 274.357 2522.87 274.357 2548.61C274.357 2574.35 253.592 2595.12 227.848 2595.12Z" fill="#D95656"/>
<path id="Vector_27" d="M917.971 2542.35L893.935 2508.93C890.948 2504.8 885.117 2502.1 878.859 2502.1H804.189L856.956 2449.33C861.365 2444.93 863.641 2438.95 862.787 2433.83L856.103 2393.3C855.391 2388.6 851.978 2385.19 847.284 2384.48L806.75 2377.79C801.629 2376.94 795.798 2379.22 791.247 2383.62L738.48 2436.39V2361.86C738.48 2355.61 735.92 2349.77 731.653 2346.79L698.23 2322.75C694.248 2319.91 689.554 2319.91 685.714 2322.75L652.291 2346.79C648.166 2349.77 645.464 2355.61 645.464 2361.86V2436.53L592.697 2383.77C588.288 2379.36 582.315 2377.08 577.194 2377.94L536.66 2384.62C531.966 2385.33 528.553 2388.75 527.841 2393.44L521.157 2433.97C520.303 2439.09 522.579 2444.93 526.988 2449.48L579.755 2502.24H505.37C499.112 2502.24 493.28 2504.8 490.293 2509.07L466.399 2542.35C463.555 2546.33 463.555 2551.03 466.399 2554.87L490.436 2588.29C493.422 2592.41 499.254 2595.12 505.512 2595.12H580.181L527.415 2647.88C523.006 2652.29 520.73 2658.27 521.583 2663.39L528.268 2703.92C528.979 2708.61 532.393 2712.03 537.086 2712.74L577.621 2719.42C582.741 2720.28 588.573 2718 593.124 2713.59L645.89 2660.83V2735.5C645.89 2741.75 648.45 2747.59 652.717 2750.57L686.141 2774.61C690.123 2777.45 694.817 2777.45 698.657 2774.61L732.08 2750.57C736.205 2747.59 738.907 2741.75 738.907 2735.5V2660.83L791.673 2713.59C796.083 2718 802.056 2720.28 807.176 2719.42L847.711 2712.74C852.405 2712.03 855.818 2708.61 856.529 2703.92L863.214 2663.39C864.067 2658.27 861.792 2652.43 857.383 2647.88L804.616 2595.12H879.286C885.544 2595.12 891.375 2592.56 894.362 2588.29L918.398 2554.87C921.243 2550.88 921.243 2546.19 918.398 2542.35H917.971ZM692.114 2595.12C666.513 2595.12 645.606 2574.35 645.606 2548.61C645.606 2522.87 666.371 2502.1 692.114 2502.1C717.857 2502.1 738.623 2522.87 738.623 2548.61C738.623 2574.35 717.857 2595.12 692.114 2595.12Z" fill="#D95656"/>
<path id="Vector_28" d="M1382.24 2542.35L1358.2 2508.93C1355.21 2504.8 1349.38 2502.1 1343.12 2502.1H1268.46L1321.22 2449.33C1325.63 2444.93 1327.91 2438.95 1327.05 2433.83L1320.37 2393.3C1319.66 2388.6 1316.24 2385.19 1311.55 2384.48L1271.02 2377.79C1265.9 2376.94 1260.06 2379.22 1255.51 2383.62L1202.75 2436.39V2361.86C1202.75 2355.61 1200.19 2349.77 1195.92 2346.79L1162.5 2322.75C1158.51 2319.91 1153.82 2319.91 1149.98 2322.75L1116.56 2346.79C1112.43 2349.77 1109.73 2355.61 1109.73 2361.86V2436.53L1056.96 2383.77C1052.55 2379.36 1046.58 2377.08 1041.46 2377.94L1000.93 2384.62C996.232 2385.33 992.818 2388.75 992.107 2393.44L985.423 2433.97C984.569 2439.09 986.845 2444.93 991.254 2449.48L1044.02 2502.24H969.635C963.377 2502.24 957.546 2504.8 954.559 2509.07L930.665 2542.35C927.82 2546.33 927.82 2551.03 930.665 2554.87L954.701 2588.29C957.688 2592.41 963.52 2595.12 969.778 2595.12H1044.45L991.681 2647.88C987.272 2652.29 984.996 2658.27 985.849 2663.39L992.534 2703.92C993.245 2708.61 996.659 2712.03 1001.35 2712.74L1041.89 2719.42C1047.01 2720.28 1052.84 2718 1057.39 2713.59L1110.16 2660.83V2735.5C1110.16 2741.75 1112.72 2747.59 1116.98 2750.57L1150.41 2774.61C1154.39 2777.45 1159.08 2777.45 1162.92 2774.61L1196.35 2750.57C1200.47 2747.59 1203.17 2741.75 1203.17 2735.5V2660.83L1255.94 2713.59C1260.35 2718 1266.32 2720.28 1271.44 2719.42L1311.98 2712.74C1316.67 2712.03 1320.08 2708.61 1320.8 2703.92L1327.48 2663.39C1328.33 2658.27 1326.06 2652.43 1321.65 2647.88L1268.88 2595.12H1343.55C1349.81 2595.12 1355.64 2592.56 1358.63 2588.29L1382.66 2554.87C1385.51 2550.88 1385.51 2546.19 1382.66 2542.35H1382.24ZM1156.38 2595.12C1130.78 2595.12 1109.87 2574.35 1109.87 2548.61C1109.87 2522.87 1130.64 2502.1 1156.38 2502.1C1182.12 2502.1 1202.89 2522.87 1202.89 2548.61C1202.89 2574.35 1182.12 2595.12 1156.38 2595.12Z" fill="#D95656"/>
<path id="Vector_29" d="M1846.5 2542.35L1822.47 2508.93C1819.48 2504.8 1813.65 2502.1 1807.39 2502.1H1732.72L1785.49 2449.33C1789.9 2444.93 1792.17 2438.95 1791.32 2433.83L1784.63 2393.3C1783.92 2388.6 1780.51 2385.19 1775.82 2384.48L1735.28 2377.79C1730.16 2376.94 1724.33 2379.22 1719.78 2383.62L1667.01 2436.39V2361.86C1667.01 2355.61 1664.45 2349.77 1660.19 2346.79L1626.76 2322.75C1622.78 2319.91 1618.09 2319.91 1614.25 2322.75L1580.82 2346.79C1576.7 2349.77 1574 2355.61 1574 2361.86V2436.53L1521.23 2383.77C1516.82 2379.36 1510.85 2377.08 1505.73 2377.94L1465.19 2384.62C1460.5 2385.33 1457.08 2388.75 1456.37 2393.44L1449.69 2433.97C1448.83 2439.09 1451.11 2444.93 1455.52 2449.48L1508.29 2502.24H1433.9C1427.64 2502.24 1421.81 2504.8 1418.82 2509.07L1394.93 2542.35C1392.09 2546.33 1392.09 2551.03 1394.93 2554.87L1418.97 2588.29C1421.95 2592.41 1427.79 2595.12 1434.04 2595.12H1508.71L1455.95 2647.88C1451.54 2652.29 1449.26 2658.27 1450.12 2663.39L1456.8 2703.92C1457.51 2708.61 1460.92 2712.03 1465.62 2712.74L1506.15 2719.42C1511.27 2720.28 1517.1 2718 1521.66 2713.59L1574.42 2660.83V2735.5C1574.42 2741.75 1576.98 2747.59 1581.25 2750.57L1614.67 2774.61C1618.65 2777.45 1623.35 2777.45 1627.19 2774.61L1660.61 2750.57C1664.74 2747.59 1667.44 2741.75 1667.44 2735.5V2660.83L1720.21 2713.59C1724.61 2718 1730.59 2720.28 1735.71 2719.42L1776.24 2712.74C1780.94 2712.03 1784.35 2708.61 1785.06 2703.92L1791.75 2663.39C1792.6 2658.27 1790.32 2652.43 1785.91 2647.88L1733.15 2595.12H1807.82C1814.08 2595.12 1819.91 2592.56 1822.89 2588.29L1846.93 2554.87C1849.77 2550.88 1849.77 2546.19 1846.93 2542.35H1846.5ZM1620.65 2595.12C1595.04 2595.12 1574.14 2574.35 1574.14 2548.61C1574.14 2522.87 1594.9 2502.1 1620.65 2502.1C1646.39 2502.1 1667.15 2522.87 1667.15 2548.61C1667.15 2574.35 1646.39 2595.12 1620.65 2595.12Z" fill="#D95656"/>
<path id="Vector_30" d="M2310.77 2542.35L2286.73 2508.93C2283.75 2504.8 2277.91 2502.1 2271.66 2502.1H2196.99L2249.75 2449.33C2254.16 2444.93 2256.44 2438.95 2255.58 2433.83L2248.9 2393.3C2248.19 2388.6 2244.78 2385.19 2240.08 2384.48L2199.55 2377.79C2194.43 2376.94 2188.6 2379.22 2184.04 2383.62L2131.28 2436.39V2361.86C2131.28 2355.61 2128.72 2349.77 2124.45 2346.79L2091.03 2322.75C2087.05 2319.91 2082.35 2319.91 2078.51 2322.75L2045.09 2346.79C2040.96 2349.77 2038.26 2355.61 2038.26 2361.86V2436.53L1985.49 2383.77C1981.09 2379.36 1975.11 2377.08 1969.99 2377.94L1929.46 2384.62C1924.76 2385.33 1921.35 2388.75 1920.64 2393.44L1913.95 2433.97C1913.1 2439.09 1915.38 2444.93 1919.79 2449.48L1972.55 2502.24H1898.17C1891.91 2502.24 1886.08 2504.8 1883.09 2509.07L1859.2 2542.35C1856.35 2546.33 1856.35 2551.03 1859.2 2554.87L1883.23 2588.29C1886.22 2592.41 1892.05 2595.12 1898.31 2595.12H1972.98L1920.21 2647.88C1915.8 2652.29 1913.53 2658.27 1914.38 2663.39L1921.07 2703.92C1921.78 2708.61 1925.19 2712.03 1929.88 2712.74L1970.42 2719.42C1975.54 2720.28 1981.37 2718 1985.92 2713.59L2038.69 2660.83V2735.5C2038.69 2741.75 2041.25 2747.59 2045.51 2750.57L2078.94 2774.61C2082.92 2777.45 2087.61 2777.45 2091.45 2774.61L2124.88 2750.57C2129 2747.59 2131.7 2741.75 2131.7 2735.5V2660.83L2184.47 2713.59C2188.88 2718 2194.85 2720.28 2199.97 2719.42L2240.51 2712.74C2245.2 2712.03 2248.62 2708.61 2249.33 2703.92L2256.01 2663.39C2256.86 2658.27 2254.59 2652.43 2250.18 2647.88L2197.41 2595.12H2272.08C2278.34 2595.12 2284.17 2592.56 2287.16 2588.29L2311.2 2554.87C2314.04 2550.88 2314.04 2546.19 2311.2 2542.35H2310.77ZM2084.91 2595.12C2059.31 2595.12 2038.4 2574.35 2038.4 2548.61C2038.4 2522.87 2059.17 2502.1 2084.91 2502.1C2110.65 2502.1 2131.42 2522.87 2131.42 2548.61C2131.42 2574.35 2110.65 2595.12 2084.91 2595.12Z" fill="#D95656"/>
<path id="Vector_31" d="M453.706 3006.47L429.669 2973.05C426.682 2968.93 420.851 2966.22 414.593 2966.22H339.924L392.69 2913.46C397.099 2909.05 399.375 2903.07 398.521 2897.95L391.837 2857.42C391.126 2852.73 387.712 2849.31 383.019 2848.6L342.484 2841.92C337.364 2841.06 331.532 2843.34 326.981 2847.75L274.215 2900.51V2825.99C274.215 2819.73 271.654 2813.9 267.388 2810.91L233.964 2786.88C229.982 2784.03 225.288 2784.03 221.448 2786.88L188.025 2810.91C183.9 2813.9 181.198 2819.73 181.198 2825.99V2900.66L128.431 2847.89C124.022 2843.48 118.049 2841.21 112.929 2842.06L72.3938 2848.74C67.7003 2849.46 64.2868 2852.87 63.5757 2857.56L56.891 2898.1C56.0376 2903.22 58.3133 2909.05 62.7223 2913.6L115.489 2966.37H41.1037C34.8457 2966.37 29.0144 2968.93 26.0276 2973.19L2.13341 3006.47C-0.711137 3010.46 -0.711137 3015.15 2.13341 3018.99L26.1699 3052.41C29.1566 3056.54 34.988 3059.24 41.246 3059.24H115.915L63.149 3112.01C58.74 3116.42 56.4643 3122.39 57.3177 3127.51L64.0024 3168.04C64.7135 3172.74 68.127 3176.15 72.8205 3176.86L113.355 3183.55C118.475 3184.4 124.307 3182.13 128.858 3177.72L181.625 3124.95V3199.62C181.625 3205.88 184.185 3211.71 188.451 3214.7L221.875 3238.73C225.857 3241.58 230.551 3241.58 234.391 3238.73L267.814 3214.7C271.939 3211.71 274.641 3205.88 274.641 3199.62V3124.95L327.408 3177.72C331.817 3182.13 337.79 3184.4 342.91 3183.55L383.445 3176.86C388.139 3176.15 391.552 3172.74 392.263 3168.04L398.948 3127.51C399.801 3122.39 397.526 3116.56 393.117 3112.01L340.35 3059.24H415.02C421.278 3059.24 427.109 3056.68 430.096 3052.41L454.132 3018.99C456.977 3015.01 456.977 3010.31 454.132 3006.47H453.706ZM227.848 3059.24C202.247 3059.24 181.34 3038.48 181.34 3012.73C181.34 2986.99 202.105 2966.22 227.848 2966.22C253.592 2966.22 274.357 2986.99 274.357 3012.73C274.357 3038.48 253.592 3059.24 227.848 3059.24Z" fill="#D95656"/>
<path id="Vector_32" d="M917.971 3006.47L893.935 2973.05C890.948 2968.93 885.117 2966.22 878.859 2966.22H804.189L856.956 2913.46C861.365 2909.05 863.641 2903.07 862.787 2897.95L856.103 2857.42C855.391 2852.73 851.978 2849.31 847.284 2848.6L806.75 2841.92C801.629 2841.06 795.798 2843.34 791.247 2847.75L738.48 2900.51V2825.99C738.48 2819.73 735.92 2813.9 731.653 2810.91L698.23 2786.88C694.248 2784.03 689.554 2784.03 685.714 2786.88L652.291 2810.91C648.166 2813.9 645.464 2819.73 645.464 2825.99V2900.66L592.697 2847.89C588.288 2843.48 582.315 2841.21 577.194 2842.06L536.66 2848.74C531.966 2849.46 528.553 2852.87 527.841 2857.56L521.157 2898.1C520.303 2903.22 522.579 2909.05 526.988 2913.6L579.755 2966.37H505.37C499.112 2966.37 493.28 2968.93 490.293 2973.19L466.399 3006.47C463.555 3010.46 463.555 3015.15 466.399 3018.99L490.436 3052.41C493.422 3056.54 499.254 3059.24 505.512 3059.24H580.181L527.415 3112.01C523.006 3116.42 520.73 3122.39 521.583 3127.51L528.268 3168.04C528.979 3172.74 532.393 3176.15 537.086 3176.86L577.621 3183.55C582.741 3184.4 588.573 3182.13 593.124 3177.72L645.89 3124.95V3199.62C645.89 3205.88 648.45 3211.71 652.717 3214.7L686.141 3238.73C690.123 3241.58 694.817 3241.58 698.657 3238.73L732.08 3214.7C736.205 3211.71 738.907 3205.88 738.907 3199.62V3124.95L791.673 3177.72C796.083 3182.13 802.056 3184.4 807.176 3183.55L847.711 3176.86C852.405 3176.15 855.818 3172.74 856.529 3168.04L863.214 3127.51C864.067 3122.39 861.792 3116.56 857.383 3112.01L804.616 3059.24H879.286C885.544 3059.24 891.375 3056.68 894.362 3052.41L918.398 3018.99C921.243 3015.01 921.243 3010.31 918.398 3006.47H917.971ZM692.114 3059.24C666.513 3059.24 645.606 3038.48 645.606 3012.73C645.606 2986.99 666.371 2966.22 692.114 2966.22C717.857 2966.22 738.623 2986.99 738.623 3012.73C738.623 3038.48 717.857 3059.24 692.114 3059.24Z" fill="#D95656"/>
<path id="Vector_33" d="M1382.24 3006.47L1358.2 2973.05C1355.21 2968.93 1349.38 2966.22 1343.12 2966.22H1268.46L1321.22 2913.46C1325.63 2909.05 1327.91 2903.07 1327.05 2897.95L1320.37 2857.42C1319.66 2852.73 1316.24 2849.31 1311.55 2848.6L1271.02 2841.92C1265.9 2841.06 1260.06 2843.34 1255.51 2847.75L1202.75 2900.51V2825.99C1202.75 2819.73 1200.19 2813.9 1195.92 2810.91L1162.5 2786.88C1158.51 2784.03 1153.82 2784.03 1149.98 2786.88L1116.56 2810.91C1112.43 2813.9 1109.73 2819.73 1109.73 2825.99V2900.66L1056.96 2847.89C1052.55 2843.48 1046.58 2841.21 1041.46 2842.06L1000.93 2848.74C996.232 2849.46 992.818 2852.87 992.107 2857.56L985.423 2898.1C984.569 2903.22 986.845 2909.05 991.254 2913.6L1044.02 2966.37H969.635C963.377 2966.37 957.546 2968.93 954.559 2973.19L930.665 3006.47C927.82 3010.46 927.82 3015.15 930.665 3018.99L954.701 3052.41C957.688 3056.54 963.52 3059.24 969.778 3059.24H1044.45L991.681 3112.01C987.272 3116.42 984.996 3122.39 985.849 3127.51L992.534 3168.04C993.245 3172.74 996.659 3176.15 1001.35 3176.86L1041.89 3183.55C1047.01 3184.4 1052.84 3182.13 1057.39 3177.72L1110.16 3124.95V3199.62C1110.16 3205.88 1112.72 3211.71 1116.98 3214.7L1150.41 3238.73C1154.39 3241.58 1159.08 3241.58 1162.92 3238.73L1196.35 3214.7C1200.47 3211.71 1203.17 3205.88 1203.17 3199.62V3124.95L1255.94 3177.72C1260.35 3182.13 1266.32 3184.4 1271.44 3183.55L1311.98 3176.86C1316.67 3176.15 1320.08 3172.74 1320.8 3168.04L1327.48 3127.51C1328.33 3122.39 1326.06 3116.56 1321.65 3112.01L1268.88 3059.24H1343.55C1349.81 3059.24 1355.64 3056.68 1358.63 3052.41L1382.66 3018.99C1385.51 3015.01 1385.51 3010.31 1382.66 3006.47H1382.24ZM1156.38 3059.24C1130.78 3059.24 1109.87 3038.48 1109.87 3012.73C1109.87 2986.99 1130.64 2966.22 1156.38 2966.22C1182.12 2966.22 1202.89 2986.99 1202.89 3012.73C1202.89 3038.48 1182.12 3059.24 1156.38 3059.24Z" fill="#D95656"/>
<path id="Vector_34" d="M1846.5 3006.47L1822.47 2973.05C1819.48 2968.93 1813.65 2966.22 1807.39 2966.22H1732.72L1785.49 2913.46C1789.9 2909.05 1792.17 2903.07 1791.32 2897.95L1784.63 2857.42C1783.92 2852.73 1780.51 2849.31 1775.82 2848.6L1735.28 2841.92C1730.16 2841.06 1724.33 2843.34 1719.78 2847.75L1667.01 2900.51V2825.99C1667.01 2819.73 1664.45 2813.9 1660.19 2810.91L1626.76 2786.88C1622.78 2784.03 1618.09 2784.03 1614.25 2786.88L1580.82 2810.91C1576.7 2813.9 1574 2819.73 1574 2825.99V2900.66L1521.23 2847.89C1516.82 2843.48 1510.85 2841.21 1505.73 2842.06L1465.19 2848.74C1460.5 2849.46 1457.08 2852.87 1456.37 2857.56L1449.69 2898.1C1448.83 2903.22 1451.11 2909.05 1455.52 2913.6L1508.29 2966.37H1433.9C1427.64 2966.37 1421.81 2968.93 1418.82 2973.19L1394.93 3006.47C1392.09 3010.46 1392.09 3015.15 1394.93 3018.99L1418.97 3052.41C1421.95 3056.54 1427.79 3059.24 1434.04 3059.24H1508.71L1455.95 3112.01C1451.54 3116.42 1449.26 3122.39 1450.12 3127.51L1456.8 3168.04C1457.51 3172.74 1460.92 3176.15 1465.62 3176.86L1506.15 3183.55C1511.27 3184.4 1517.1 3182.13 1521.66 3177.72L1574.42 3124.95V3199.62C1574.42 3205.88 1576.98 3211.71 1581.25 3214.7L1614.67 3238.73C1618.65 3241.58 1623.35 3241.58 1627.19 3238.73L1660.61 3214.7C1664.74 3211.71 1667.44 3205.88 1667.44 3199.62V3124.95L1720.21 3177.72C1724.61 3182.13 1730.59 3184.4 1735.71 3183.55L1776.24 3176.86C1780.94 3176.15 1784.35 3172.74 1785.06 3168.04L1791.75 3127.51C1792.6 3122.39 1790.32 3116.56 1785.91 3112.01L1733.15 3059.24H1807.82C1814.08 3059.24 1819.91 3056.68 1822.89 3052.41L1846.93 3018.99C1849.77 3015.01 1849.77 3010.31 1846.93 3006.47H1846.5ZM1620.65 3059.24C1595.04 3059.24 1574.14 3038.48 1574.14 3012.73C1574.14 2986.99 1594.9 2966.22 1620.65 2966.22C1646.39 2966.22 1667.15 2986.99 1667.15 3012.73C1667.15 3038.48 1646.39 3059.24 1620.65 3059.24Z" fill="#D95656"/>
<path id="Vector_35" d="M2310.77 3006.47L2286.73 2973.05C2283.75 2968.93 2277.91 2966.22 2271.66 2966.22H2196.99L2249.75 2913.46C2254.16 2909.05 2256.44 2903.07 2255.58 2897.95L2248.9 2857.42C2248.19 2852.73 2244.78 2849.31 2240.08 2848.6L2199.55 2841.92C2194.43 2841.06 2188.6 2843.34 2184.04 2847.75L2131.28 2900.51V2825.99C2131.28 2819.73 2128.72 2813.9 2124.45 2810.91L2091.03 2786.88C2087.05 2784.03 2082.35 2784.03 2078.51 2786.88L2045.09 2810.91C2040.96 2813.9 2038.26 2819.73 2038.26 2825.99V2900.66L1985.49 2847.89C1981.09 2843.48 1975.11 2841.21 1969.99 2842.06L1929.46 2848.74C1924.76 2849.46 1921.35 2852.87 1920.64 2857.56L1913.95 2898.1C1913.1 2903.22 1915.38 2909.05 1919.79 2913.6L1972.55 2966.37H1898.17C1891.91 2966.37 1886.08 2968.93 1883.09 2973.19L1859.2 3006.47C1856.35 3010.46 1856.35 3015.15 1859.2 3018.99L1883.23 3052.41C1886.22 3056.54 1892.05 3059.24 1898.31 3059.24H1972.98L1920.21 3112.01C1915.8 3116.42 1913.53 3122.39 1914.38 3127.51L1921.07 3168.04C1921.78 3172.74 1925.19 3176.15 1929.88 3176.86L1970.42 3183.55C1975.54 3184.4 1981.37 3182.13 1985.92 3177.72L2038.69 3124.95V3199.62C2038.69 3205.88 2041.25 3211.71 2045.51 3214.7L2078.94 3238.73C2082.92 3241.58 2087.61 3241.58 2091.45 3238.73L2124.88 3214.7C2129 3211.71 2131.7 3205.88 2131.7 3199.62V3124.95L2184.47 3177.72C2188.88 3182.13 2194.85 3184.4 2199.97 3183.55L2240.51 3176.86C2245.2 3176.15 2248.62 3172.74 2249.33 3168.04L2256.01 3127.51C2256.86 3122.39 2254.59 3116.56 2250.18 3112.01L2197.41 3059.24H2272.08C2278.34 3059.24 2284.17 3056.68 2287.16 3052.41L2311.2 3018.99C2314.04 3015.01 2314.04 3010.31 2311.2 3006.47H2310.77ZM2084.91 3059.24C2059.31 3059.24 2038.4 3038.48 2038.4 3012.73C2038.4 2986.99 2059.17 2966.22 2084.91 2966.22C2110.65 2966.22 2131.42 2986.99 2131.42 3012.73C2131.42 3038.48 2110.65 3059.24 2084.91 3059.24Z" fill="#D95656"/>
</g>
</svg>
