<svg preserveAspectRatio="none" width="100%" height="100%" overflow="visible" style="display: block;" viewBox="0 0 158.052 158.221" fill="none" xmlns="http://www.w3.org/2000/svg">
<g id="Group">
<path id="Vector" d="M143.741 124.64L143.994 110.218C144.02 108.434 142.949 106.453 141.191 105.142L120.222 89.4974L146.096 85.7354C148.258 85.4208 150.149 84.2203 150.981 82.6034L157.598 69.8203C158.381 68.3537 158.138 66.6797 156.969 65.4964L146.987 55.1268C145.728 53.8144 143.613 53.2313 141.412 53.5162L115.538 57.2782L131.153 36.3494C132.464 34.5922 132.967 32.4182 132.394 30.6855L128.045 16.9328C127.523 15.2996 126.205 14.3163 124.53 14.3105L110.108 14.0574C108.324 14.0319 106.344 15.1032 105.033 16.8606L89.3877 37.8289L85.6257 11.9557C85.3118 9.79371 84.1106 7.90316 82.4945 7.07L69.7105 0.454294C68.2439 -0.329411 66.5699 -0.0860171 65.3866 1.08297L55.0171 11.0651C53.7046 12.3242 53.1216 14.4385 53.4065 16.6404L57.1685 42.5136L36.2799 26.9285C34.5226 25.6173 32.3486 25.1144 30.6159 25.6868L16.933 30.0263C15.2998 30.5487 14.3164 31.8666 14.3106 33.541L14.0575 47.9628C14.0321 49.7471 15.1034 51.7279 16.8607 53.0388L37.829 68.6839L11.9558 72.4459C9.79386 72.7597 7.90332 73.9603 7.07015 75.5771L0.454444 88.3603C-0.32926 89.8277 -0.0858666 91.5017 1.08312 92.6842L11.0654 103.055C12.3244 104.367 14.4386 104.949 16.6405 104.665L42.5137 100.903L26.869 121.872C25.5578 123.629 25.055 125.803 25.6274 127.535L29.977 141.288C30.4993 142.921 31.8173 143.904 33.4917 143.911L47.9133 144.163C49.6977 144.189 51.6785 143.118 52.9893 141.36L68.6345 120.392L72.3965 146.265C72.7103 148.427 73.9116 150.318 75.5277 151.151L88.3116 157.767C89.7782 158.55 91.4522 158.307 92.6347 157.137L103.005 147.155C104.318 145.897 104.901 143.782 104.616 141.581L100.854 115.707L121.822 131.352C123.579 132.663 125.753 133.166 127.486 132.593L141.239 128.244C142.872 127.722 143.855 126.404 143.861 124.729L143.741 124.64ZM69.2613 92.1356C62.0723 86.7716 60.5517 76.5601 65.9454 69.3311C71.3392 62.1022 81.5217 60.6215 88.7506 66.0152C95.9796 71.409 97.4603 81.5907 92.0666 88.8197C86.6728 96.0494 76.4903 97.5293 69.2613 92.1356Z" fill="#FBD644"/>
<path id="Vector_2" d="M124.527 15.2282C125.712 15.2322 126.643 15.8595 127.088 16.9818L127.171 17.2122L131.519 30.962L131.521 30.9678L131.523 30.9735C131.978 32.35 131.599 34.2158 130.417 35.8008L113.477 58.5053L141.529 54.4263C143.53 54.168 145.321 54.7166 146.324 55.7622L146.326 55.763L156.307 66.1333L156.316 66.1419C157.202 67.0388 157.382 68.2761 156.788 69.3882L156.782 69.3984L150.167 82.1823L150.166 82.1831C149.499 83.4775 147.905 84.5442 145.964 84.8267L120.091 88.5887L117.897 88.908L140.641 105.878C142.214 107.051 143.096 108.774 143.076 110.205L143.077 110.204L142.823 124.624L142.815 125.094L142.911 125.166C142.76 126.213 142.075 127.011 140.962 127.369L127.209 131.718L127.203 131.721L127.198 131.721C125.821 132.176 123.955 131.799 122.371 130.616L99.6265 113.647L103.705 141.698C103.964 143.698 103.415 145.49 102.37 146.493L102.369 146.494L91.9984 156.477L91.9937 156.48L91.9898 156.485C91.0929 157.371 89.8556 157.551 88.7435 156.957L88.738 156.954L88.7333 156.951L75.9494 150.336L75.9487 150.335C74.6542 149.667 73.5867 148.074 73.305 146.133L69.5422 120.26L69.2237 118.066L52.2536 140.811C51.0813 142.383 49.3603 143.265 47.9297 143.245L33.5076 142.993H33.5017H33.4951C32.3107 142.989 31.379 142.362 30.9335 141.24L30.8513 141.009L26.5027 127.258L26.5002 127.253L26.4989 127.247C26.0442 125.871 26.4222 124.006 27.6046 122.42L44.5748 99.676L42.3817 99.9952L16.5227 103.755C14.5219 104.013 12.7306 103.465 11.7276 102.419L11.7264 102.417L1.74466 92.0479L1.73582 92.0392C0.849595 91.1424 0.669673 89.9051 1.26383 88.793L1.26688 88.7875L1.26946 88.7828L7.88509 75.9989L7.88595 75.9973L8.02205 75.7579C8.75379 74.573 10.268 73.619 12.0878 73.3545L40.1538 69.2732L17.4097 52.3039C15.8373 51.1307 14.9545 49.4066 14.9749 47.9753L15.2283 33.5569L15.2285 33.5504L15.2282 33.5444L15.2374 33.311C15.3238 32.1619 16.0243 31.2814 17.2107 30.9013L30.8935 26.562L30.904 26.5583C32.2804 26.1036 34.1457 26.4816 35.7306 27.6641L58.3947 44.5743L54.3166 16.5223C54.0583 14.5215 54.6069 12.7302 55.6525 11.7272L55.654 11.7264L66.0236 1.74421L66.0275 1.73983L66.0322 1.73584C66.9291 0.849609 68.1664 0.669688 69.2785 1.26384L69.2832 1.26643L69.2886 1.26948L82.0726 7.88503L82.0741 7.88597C83.3678 8.55291 84.4353 10.1467 84.717 12.0878L88.7983 40.1538L105.768 17.4096C106.941 15.8373 108.663 14.9547 110.095 14.9751L110.095 14.974L124.514 15.2279L124.527 15.2282ZM89.2992 65.2795C81.6633 59.5829 70.9063 61.1473 65.2097 68.7825C59.5115 76.4192 61.1182 87.2059 68.7119 92.8712C76.3478 98.5686 87.1047 97.0041 92.8013 89.369C98.498 81.7339 96.9343 70.9769 89.2992 65.2795Z" stroke="#FCE073" stroke-opacity="0.45" stroke-width="1.83571"/>
</g>
</svg>
